<?xml version="1.0" encoding="utf-8"?>
<!-- Generator: Adobe Illustrator 22.1.0, SVG Export Plug-In . SVG Version: 6.00 Build 0)  -->
<svg version="1.1" id="Layer_1" xmlns="http://www.w3.org/2000/svg" xmlns:xlink="http://www.w3.org/1999/xlink" x="0px" y="0px"
	 viewBox="0 0 100 100" style="enable-background:new 0 0 100 100;" xml:space="preserve">
<style type="text/css">
	.st0{fill:#000000;}
</style>
<g>
	
		<image style="overflow:visible;opacity:0.75;" width="157" height="179" xlink:href="CB0EF82C.png"  transform="matrix(0.24 0 0 0.24 6.3245 30.7614)">
	</image>
	<g>
		<path class="st0" d="M21.7,51.2c-2.4-0.5-4.4-2.3-5.2-4.7c-0.6-2.4-1.1-4.9-1.4-7.4c0-0.1-0.2-0.2-0.2,0c-0.9,3-0.6,6.2,0.7,9
			c1,2.4,3.5,3.9,6.1,3.6C21.9,51.5,22,51.2,21.7,51.2z"/>
	</g>
</g>
<g>
	
		<image style="overflow:visible;opacity:0.75;" width="153" height="172" xlink:href="CB0EF82D.png"  transform="matrix(0.24 0 0 0.24 14.4845 32.6814)">
	</image>
	<g>
		<path class="st0" d="M28.9,40.9c-0.6,0.6-1.1,1.4-1.4,2.2c-0.6,1.1-1.2,2.2-1.8,3.4c-0.6,1.2-1.4,2.4-2.2,3.4
			c-0.6,0.7-1,1-0.8,1.9l0.1,0c1.5-1.5,2.9-3.1,4-4.9c1.1-1.8,1.9-3.8,2.3-5.9L28.9,40.9L28.9,40.9z"/>
	</g>
</g>
<g>
	
		<image style="overflow:visible;opacity:0.75;" width="143" height="138" xlink:href="CB0EF82B.png"  transform="matrix(0.24 0 0 0.24 14.9645 44.6814)">
	</image>
	<g>
		<path d="M27.1,55.1c-0.7-0.3-1.4-0.5-2.1-0.7c-0.8-0.3-1.4-0.9-1.6-1.7l-0.1,0c-0.2,0.4-0.2,0.8,0,1.2c0.2,0.4,0.6,0.8,1,1
			c0.7,0.5,2,1,2.8,0.5C27.1,55.4,27.2,55.2,27.1,55.1z"/>
	</g>
</g>
<g>
	
		<image style="overflow:visible;opacity:0.75;" width="142" height="132" xlink:href="CB0EF834.png"  transform="matrix(0.24 0 0 0.24 19.5245 45.4014)">
	</image>
	<g>
		<path d="M31.4,54.4c-0.6-1.4-2.7-0.6-3.7-0.3l-0.1,0.2c0.3,0.4,0.9,0.6,1.4,0.5c0.6-0.1,1.3,0,1.9,0.2c0.2,0.1,0.5,0,0.5-0.3
			L31.4,54.4z"/>
	</g>
</g>
<g>
	
		<image style="overflow:visible;opacity:0.75;" width="141" height="134" xlink:href="CB0EF837.png"  transform="matrix(0.24 0 0 0.24 23.3645 45.6414)">
	</image>
	<g>
		<path d="M34.9,53.8c-0.1-0.1-0.3-0.2-0.4-0.1c-0.2,0.2-0.3,0.4-0.4,0.6c-0.2,0.2-0.5,0.4-0.8,0.5c-0.5,0.3-1.1,0.4-1.6,0.6l0,0.2
			c0.8,0,1.5-0.1,2.3-0.3C34.4,55.1,35.3,54.5,34.9,53.8z"/>
	</g>
</g>
<g>
	
		<image style="overflow:visible;opacity:0.75;" width="189" height="176" xlink:href="CB0EF835.png"  transform="matrix(0.24 0 0 0.24 21.6845 32.2014)">
	</image>
	<g>
		<path class="st0" d="M44.8,49.6c-3.1,2.2-7.2,2.5-10.5,0.6c-1.2-1.1-2-2.5-2.5-4c-1-1.8-1.4-3.8-1-5.8l-0.1-0.1
			c-1,1.8-1.1,4-0.3,5.8c0.6,2,1.8,3.8,3.4,5.1c2.2,1.1,4.8,1.4,7.3,0.9C42.6,52.2,44.1,51.2,44.8,49.6L44.8,49.6z"/>
	</g>
</g>
<g>
	
		<image style="overflow:visible;opacity:0.75;" width="137" height="171" xlink:href="CB0EF83B.png"  transform="matrix(0.24 0 0 0.24 35.8445 30.2814)">
	</image>
	<g>
		<path class="st0" d="M46.5,43.5c0-1.9-0.1-4.2-2-5.1c-0.2-0.1-0.4,0-0.4,0.2c0,0,0,0,0,0l0,0.2c0.8,1.5,1.1,3.2,1.1,4.9
			c0.3,1.8,0.3,3.6-0.2,5.4l0.1,0C46.2,47.5,46.7,45.5,46.5,43.5z"/>
	</g>
</g>
<g>
	
		<image style="overflow:visible;opacity:0.75;" width="134" height="143" xlink:href="CB0EF83C.png"  transform="matrix(0.24 0 0 0.24 16.6445 31.4814)">
	</image>
	<g>
		<path d="M24.8,39.6l-0.1,0.2c1.2,0.7,0.6,2.6,0.8,3.7c0,0.2,0.3,0.4,0.5,0.4l0.3-0.2c0.7-1.5,0.2-3.2-1.3-4c0,0,0,0,0,0L24.8,39.6
			z"/>
	</g>
</g>
<g>
	
		<image style="overflow:visible;opacity:0.75;" width="135" height="159" xlink:href="CB0EF83F.png"  transform="matrix(0.24 0 0 0.24 14.9645 15.4014)">
	</image>
	<g>
		<path d="M24.9,23.6c0-0.1-0.1-0.2-0.2-0.2c0,0,0,0,0,0l-0.2,0.2c-0.2,2.5-0.9,4.9-1.4,7.4c0,0.2,0.2,0.5,0.4,0.5
			c0.2,0,0.3,0,0.4-0.2C25.1,28.9,25.5,26.2,24.9,23.6z"/>
	</g>
</g>
<g>
	
		<image style="overflow:visible;opacity:0.75;" width="135" height="146" xlink:href="5929DEBB.png"  transform="matrix(0.24 0 0 0.24 19.5245 48.7614)">
	</image>
	<g>
		<path d="M29,59.8C28.3,59,28.5,58,28.1,57L28,57l-0.1,0.1c0.1,1-0.5,1.8,0,2.8c0.4,0.6,0.8,1.2,1.3,1.8c0.1,0.1,0.3,0.2,0.5,0
			c0,0,0,0,0,0l0.1-0.1C30.1,60.8,29.5,60.3,29,59.8z"/>
	</g>
</g>
<g>
	
		<image style="overflow:visible;opacity:0.75;" width="139" height="147" xlink:href="5929DEB9.png"  transform="matrix(0.24 0 0 0.24 21.2045 49.2414)">
	</image>
	<g>
		<path d="M31.5,60.1c-0.4-0.3-0.8-0.7-1.1-1.1c-0.3-0.5-0.6-1-0.7-1.5l-0.2,0c-0.7,2.1,1.6,3,2.3,4.8c0.1,0.2,0.3,0.2,0.4,0.2
			c0,0,0,0,0,0l0.2-0.2C32.7,61.3,32.2,60.7,31.5,60.1z"/>
	</g>
</g>
<g>
	
		<image style="overflow:visible;opacity:0.75;" width="142" height="146" xlink:href="5929DEBF.png"  transform="matrix(0.24 0 0 0.24 22.6445 49.7214)">
	</image>
	<g>
		<path d="M33.4,59.4c-0.4-0.5-0.9-0.9-1.5-1.3c-0.4-0.2-0.7-0.3-1.1-0.4l-0.1,0.2c0.2,0.2,0.5,0.5,0.6,0.8l1,1.2
			c0.6,0.7,1.1,1.6,1.5,2.5c0.1,0.2,0.3,0.3,0.5,0.2c0,0,0,0,0,0l0.2-0.2C35,61.4,34,60.2,33.4,59.4z"/>
	</g>
</g>
<g>
	
		<image style="overflow:visible;opacity:0.75;" width="176" height="151" xlink:href="5929DEBA.png"  transform="matrix(0.24 0 0 0.24 17.1245 50.2014)">
	</image>
	<g>
		<path d="M32.5,58.2l0,0.2c1-0.1,1.9,1.5,2.4,2.2c0.5,0.7,0.9,1.6,1.2,2.5l-0.2,0c-1,0.2-2.1,0.2-3.1-0.1c-1.1-0.1-2.1-0.2-3.2-0.2
			c-0.7,0-4,0.4-4.2-0.4l-0.2,0c-0.3,1.6,2.7,1.7,3.6,1.7c1.6-0.1,3.1-0.1,4.7,0.1c1.1,0.1,2.1,0.2,2.6-0.9l0,0l0.2,0.6
			c0.1,0.2,0.3,0.3,0.5,0.2l0.2-0.2C38.2,61.5,34.8,58,32.5,58.2z"/>
	</g>
</g>
<g>
	
		<image style="overflow:visible;opacity:0.75;" width="137" height="161" xlink:href="5929DEA5.png"  transform="matrix(0.24 0 0 0.24 28.6445 51.4014)">
	</image>
	<g>
		<path d="M38.9,63c-0.1-0.5-0.2-0.9-0.5-1.4c-0.4-0.7-1.1-1.2-1.4-2c0-0.1-0.2-0.1-0.2,0c0.2,1.1,0.5,2.2,0.9,3.2
			c0.3,1.6,0.4,3.2,0.8,4.7c0,0.2,0.2,0.4,0.5,0.3c0.2,0,0.3-0.2,0.3-0.3C39.5,66.1,39.4,64.5,38.9,63z"/>
	</g>
</g>
<g>
	
		<image style="overflow:visible;opacity:0.75;" width="134" height="156" xlink:href="5929DEA6.png"  transform="matrix(0.24 0 0 0.24 31.0445 54.0414)">
	</image>
	<g>
		<path d="M39.3,62.1l-0.1,0.1c0.8,0.8,0.7,2.5,0.8,3.5c0,1.1,0.1,2.2,0.3,3.2c0,0.2,0.2,0.3,0.4,0.3c0.2,0,0.3-0.2,0.3-0.3
			C41.3,67,41.3,63.3,39.3,62.1z"/>
	</g>
</g>
<g>
	
		<image style="overflow:visible;opacity:0.75;" width="134" height="145" xlink:href="5929DEA7.png"  transform="matrix(0.24 0 0 0.24 32.9645 56.2014)">
	</image>
	<g>
		<path d="M41.3,64.3l-0.2,0.1c0.6,1.4,1.1,2.8,1.3,4.3c0,0.3,0.5,0.3,0.5,0C42.8,67.1,42.3,65.6,41.3,64.3z"/>
	</g>
</g>
<g>
	
		<image style="overflow:visible;opacity:0.75;" width="133" height="136" xlink:href="5929DEA9.png"  transform="matrix(0.24 0 0 0.24 17.3645 49.2414)">
	</image>
	<g>
		<path d="M26.9,57.3l-0.2,0.1c0.1,0.8-0.6,1.4-1.1,2c-0.1,0.1-0.1,0.3,0.1,0.4c0,0,0,0,0,0l0.3,0C26.8,59.2,27.6,58.2,26.9,57.3z"
			/>
	</g>
</g>
<g>
	
		<image style="overflow:visible;opacity:0.75;" width="135" height="142" xlink:href="5929DEAB.png"  transform="matrix(0.24 0 0 0.24 15.4445 48.7614)">
	</image>
	<g>
		<path d="M25.6,56.8c-0.7,1.1-2.2,2.1-2.1,3.5c0,0.2,0.2,0.3,0.4,0.3l0.2-0.1c0.5-0.5,0.8-1.1,1.1-1.7c0.3-0.6,0.5-1.3,0.5-2
			L25.6,56.8z"/>
	</g>
</g>
<g>
	
		<image style="overflow:visible;opacity:0.75;" width="132" height="147" xlink:href="5929DEAE.png"  transform="matrix(0.24 0 0 0.24 14.2445 49.7214)">
	</image>
	<g>
		<path d="M23.7,58l-0.2-0.1c-0.9,1.3-1.8,3.3-0.8,4.8c0.1,0.1,0.3,0.2,0.5,0l0.1-0.2c0.1-0.8,0-1.5,0.1-2.3
			C23.5,59.5,23.7,58.7,23.7,58z"/>
	</g>
</g>
<g>
	
		<image style="overflow:visible;opacity:0.75;" width="129" height="138" xlink:href="5929DEC2.png"  transform="matrix(0.24 0 0 0.24 13.2845 53.0814)">
	</image>
	<g>
		<path d="M21.5,61.1h-0.1c-0.1,1,0,2,0.3,2.9l0.3,0.1l0.1-0.2C22,63,21.7,62.1,21.5,61.1z"/>
	</g>
</g>
<g>
	
		<image style="overflow:visible;opacity:0.75;" width="162" height="145" xlink:href="5929DEC1.png"  transform="matrix(0.24 0 0 0.24 18.3245 58.1214)">
	</image>
	<g>
		<path d="M34.9,66.2c-2.8,0.7-5.6,0.9-8.5,0.6l-0.1,0.2c0.6,0.7,1.5,1.2,2.5,1.4c-0.2,0.4-0.4,0.7-0.6,1.1
			c-0.1,0.3-0.5,1.2-0.9,1.2c-0.1,0-0.1,0.2,0,0.2c0.6,0.1,1.1-0.2,1.5-0.6c0.5-0.5,1-1.1,1.3-1.7l0-0.3c1.7-0.5,3.3-1.1,4.8-1.8
			l0.1-0.2L34.9,66.2z"/>
	</g>
</g>
<g>
	
		<image style="overflow:visible;opacity:0.75;" width="134" height="137" xlink:href="5929DECE.png"  transform="matrix(0.24 0 0 0.24 21.2045 60.7614)">
	</image>
	<g>
		<path d="M31.1,69.1c0-0.2-0.2-0.3-0.4-0.3c0,0,0,0,0,0L30.5,69c-0.3,0.7-0.4,1.7-1.1,2.3l0.1,0.2c0.5-0.1,1-0.4,1.3-0.8
			C31.1,70.2,31.2,69.6,31.1,69.1z"/>
	</g>
</g>
<g>
	
		<image style="overflow:visible;opacity:0.75;" width="131" height="138" xlink:href="5929DEC0.png"  transform="matrix(0.24 0 0 0.24 22.8845 62.4414)">
	</image>
	<g>
		<path d="M32,70.6l-0.2,0c-0.3,0.9-1.1,1.7-0.7,2.7c0.1,0.2,0.3,0.3,0.5,0.2l0.2-0.2C32.3,72.4,32.4,71.5,32,70.6z"/>
	</g>
</g>
<g>
	
		<image style="overflow:visible;opacity:0.75;" width="129" height="134" xlink:href="5929DEC3.png"  transform="matrix(0.24 0 0 0.24 24.8045 63.4014)">
	</image>
	<g>
		<path d="M33.7,72.3c0-0.2-0.1-0.3-0.2-0.5l-0.2-0.2l-0.2,0.1l0,0l0,0.1L33,71.9l-0.1,0.5c-0.1,0.3,0,0.7,0.1,1
			c0.1,0.1,0.3,0.2,0.5,0.1c0,0,0,0,0,0l0.1-0.1C33.7,73.1,33.8,72.7,33.7,72.3z"/>
	</g>
</g>
<g>
	
		<image style="overflow:visible;opacity:0.75;" width="132" height="137" xlink:href="5929DEC7.png"  transform="matrix(0.24 0 0 0.24 26.7245 62.9214)">
	</image>
	<g>
		<path d="M36,71L35.8,71l-0.1,0.1l0,0c0.1,0.4-0.3,0.9-0.4,1.2c-0.2,0.3-0.4,0.7-0.5,1c-0.1,0.2,0,0.3,0.2,0.4c0,0,0,0,0,0l0.3,0
			c0.4-0.3,0.8-0.8,0.9-1.3C36.3,71.9,36.2,71.4,36,71z"/>
	</g>
</g>
<g>
	
		<image style="overflow:visible;opacity:0.75;" width="131" height="136" xlink:href="5929DEC6.png"  transform="matrix(0.24 0 0 0.24 29.3645 61.4814)">
	</image>
	<g>
		<path d="M38.4,69.5l-0.2,0c-0.2,0.7-0.4,1.3-0.7,2c-0.2,0.3,0.3,0.5,0.5,0.4C38.9,71.3,38.7,70.4,38.4,69.5z"/>
	</g>
</g>
<g>
	
		<image style="overflow:visible;opacity:0.75;" width="132" height="148" xlink:href="5929DEFD.png"  transform="matrix(0.24 0 0 0.24 34.6445 54.2814)">
	</image>
	<g>
		<path d="M43.8,64.9c0-0.8,0-1.6,0.1-2.5l-0.2,0c-0.5,1.6-1.6,3.8-0.2,5.2c0.1,0.2,0.4,0.2,0.5,0c0.1-0.1,0.1-0.2,0.1-0.3
			C44.1,66.5,43.8,65.7,43.8,64.9z"/>
	</g>
</g>
<g>
	
		<image style="overflow:visible;opacity:0.75;" width="131" height="142" xlink:href="5929DEFE.png"  transform="matrix(0.24 0 0 0.24 37.2845 53.3214)">
	</image>
	<g>
		<path d="M46.4,61.5l-0.2,0c-0.6,1.1-0.9,2.4-0.7,3.6c0.1,0.2,0.3,0.3,0.5,0.2l0.2-0.2C46.7,63.9,46.8,62.7,46.4,61.5z"/>
	</g>
</g>
<g>
	
		<image style="overflow:visible;opacity:0.75;" width="132" height="143" xlink:href="5929DEFF.png"  transform="matrix(0.24 0 0 0.24 39.2045 52.1214)">
	</image>
	<g>
		<path d="M48.8,60.5l-0.2-0.2c-1.3,0.7-1.7,2.4-1,3.7l0.2,0.3c0.3,0.2,0.6-0.1,0.6-0.4c-0.1-0.6-0.1-1.2-0.1-1.7
			C48.5,61.6,48.6,61,48.8,60.5z"/>
	</g>
</g>
<g>
	
		<image style="overflow:visible;opacity:0.75;" width="130" height="140" xlink:href="5929DEE5.png"  transform="matrix(0.24 0 0 0.24 41.8445 51.1614)">
	</image>
	<g>
		<path d="M50.7,59.3c-0.6,0.9-0.9,2-0.7,3c0,0.1,0.2,0.2,0.3,0.2c0,0,0,0,0,0l0.2-0.2c0.1-1,0.2-2,0.4-2.9
			C51,59.3,50.8,59.2,50.7,59.3z"/>
	</g>
</g>
<g>
	
		<image style="overflow:visible;opacity:0.75;" width="156" height="181" xlink:href="5929DEE3.png"  transform="matrix(0.24 0 0 0.24 44.4845 40.3614)">
	</image>
	<g>
		<path d="M59.5,48.5c-1,2.2-1.5,4.6-2.5,6.7c-1.2,2.1-2.7,4-4.3,5.8c-0.3,0.3,0.2,0.7,0.5,0.5c1.9-1.3,3.4-3.1,4.5-5.1
			c1-2.5,1.7-5.2,2.1-7.8l-0.1-0.2L59.5,48.5z"/>
	</g>
</g>
<g>
	
		<image style="overflow:visible;opacity:0.75;" width="135" height="144" xlink:href="5929DEDD.png"  transform="matrix(0.24 0 0 0.24 49.7645 46.3614)">
	</image>
	<g>
		<path d="M59.8,54.6c-0.7,1.2-1.4,2.5-2,3.9l0.1,0.2l0.2-0.1c0.6-1.3,1.3-2.6,1.9-3.9C60.1,54.6,59.9,54.5,59.8,54.6z"/>
	</g>
</g>
<g>
	
		<image style="overflow:visible;opacity:0.75;" width="134" height="162" xlink:href="5929DEDF.png"  transform="matrix(0.24 0 0 0.24 51.9245 44.6814)">
	</image>
	<g>
		<path d="M61.8,52.8c-1.7,2.5-2.1,5.7-1.1,8.5c0.1,0.2,0.3,0.3,0.5,0.2c0.1,0,0.2-0.1,0.2-0.3c-0.1-2.8,0.1-5.6,0.7-8.3l-0.1-0.2
			L61.8,52.8z"/>
	</g>
</g>
<g>
	
		<image style="overflow:visible;opacity:0.75;" width="155" height="150" xlink:href="5929DEDC.png"  transform="matrix(0.24 0 0 0.24 50.0045 52.1214)">
	</image>
	<g>
		<path d="M64.2,63.3c-0.7-0.6-2.2-1.2-2.1-2.3c0-0.1-0.2-0.2-0.2,0c-0.1,0.8,0.2,1.6,0.7,2.3l0.7,1l-0.1-0.1c-1-0.2-2-0.6-2.9-1
			c-1-0.6-1.6-1.7-1.8-2.8c0-0.1-0.2-0.1-0.2,0c-0.2,1.3,0.3,2.6,1.2,3.6c0.9,1.1,2.4,1.5,3.8,1.1c0.2-0.1,0.3-0.3,0.3-0.5
			c0.3,0.4,0.5,0.8,0.7,1.3c0.1,0.2,0.4,0.3,0.6,0.2c0,0,0,0,0,0l0.2-0.2C65.4,64.8,65,63.8,64.2,63.3z"/>
	</g>
</g>
<g>
	
		<image style="overflow:visible;opacity:0.75;" width="132" height="146" xlink:href="5929DF23.png"  transform="matrix(0.24 0 0 0.24 14.7245 56.4414)">
	</image>
	<g>
		<path d="M24.1,64.6c-0.8,1.3-1.3,2.8-1.3,4.4c0,0.2,0.1,0.3,0.3,0.3c0.1,0,0.3-0.1,0.3-0.2c0.5-1.4,0.8-2.9,0.9-4.4L24.1,64.6z"/>
	</g>
</g>
<g>
	
		<image style="overflow:visible;opacity:0.75;" width="133" height="145" xlink:href="5929DF25.png"  transform="matrix(0.24 0 0 0.24 15.2045 58.3614)">
	</image>
	<g>
		<path d="M24.8,66.6l-0.2,0c-0.2,0.6-0.3,1.3-0.4,1.9c-0.2,0.7-0.5,1.4-0.9,2.1c-0.1,0.2,0,0.4,0.2,0.5c0,0,0,0,0,0l0.3,0
			C25.3,70.3,25.3,68,24.8,66.6z"/>
	</g>
</g>
<g>
	
		<image style="overflow:visible;opacity:0.75;" width="130" height="135" xlink:href="5929DF27.png"  transform="matrix(0.24 0 0 0.24 17.1245 61.2414)">
	</image>
	<g>
		<path d="M25.8,69.3l-0.2,0c-0.1,0.7-0.2,1.3-0.4,2c-0.1,0.3,0.2,0.5,0.4,0.3C26.4,71,26.1,70,25.8,69.3z"/>
	</g>
</g>
<g>
	
		<image style="overflow:visible;opacity:0.75;" width="128" height="131" xlink:href="5929DF24.png"  transform="matrix(0.24 0 0 0.24 18.5645 63.4014)">
	</image>
	<g>
		<path d="M27.2,71.5l-0.1-0.1L27,71.5c0,0.3-0.1,0.7-0.2,1c-0.1,0.1,0.2,0.3,0.3,0.1C27.2,72.3,27.3,71.9,27.2,71.5z"/>
	</g>
</g>
<g>
	
		<image style="overflow:visible;opacity:0.75;" width="133" height="144" xlink:href="5929DF2C.png"  transform="matrix(0.24 0 0 0.24 15.2045 63.6414)">
	</image>
	<g>
		<path d="M24.7,71.7l-0.2-0.1l-0.1,0.1c0.2,1.4-1,2.6-1.2,3.9c0,0.2,0.1,0.4,0.3,0.4c0.1,0,0.2,0,0.3-0.1
			C24.9,74.8,25.2,73.2,24.7,71.7z"/>
	</g>
</g>
<g>
	
		<image style="overflow:visible;opacity:0.75;" width="135" height="149" xlink:href="5929DF08.png"  transform="matrix(0.24 0 0 0.24 15.4445 65.5614)">
	</image>
	<g>
		<path d="M25.6,73.6l-0.2,0c-0.4,1-0.8,1.9-1.2,2.9c-0.5,0.8-0.6,1.7-0.4,2.6c0.1,0.4,0.6,0.3,0.8,0c0.5-1,0.8-2,1-3
			C25.9,75.2,25.9,74.4,25.6,73.6z"/>
	</g>
</g>
<g>
	
		<image style="overflow:visible;opacity:0.75;" width="131" height="148" xlink:href="5929DF0B.png"  transform="matrix(0.24 0 0 0.24 17.6045 67.9614)">
	</image>
	<g>
		<path d="M26.8,77.8c0.1-0.6,0.4-1.2,0-1.7l-0.2,0c-0.1,0.8-0.7,1.5-0.9,2.3c-0.2,0.9-0.1,1.8,0.2,2.6c0.1,0.2,0.3,0.3,0.5,0.2
			c0.1-0.1,0.2-0.2,0.2-0.3C26.9,79.9,26.6,78.9,26.8,77.8z"/>
	</g>
</g>
<g>
	
		<image style="overflow:visible;opacity:0.75;" width="135" height="154" xlink:href="5929DF09.png"  transform="matrix(0.24 0 0 0.24 19.2845 70.6014)">
	</image>
	<g>
		<path d="M29.4,84.7c-0.4-1-0.8-2.1-1-3.2c0-1-0.2-1.9-0.4-2.8l-0.2,0c-0.6,1.9-0.9,5.3,0.8,6.7C29.1,85.7,29.6,85.2,29.4,84.7z"/>
	</g>
</g>
<g>
	
		<image style="overflow:visible;opacity:0.75;" width="134" height="149" xlink:href="5929DF0F.png"  transform="matrix(0.24 0 0 0.24 21.4445 72.5214)">
	</image>
	<g>
		<path d="M31.5,85.6c-0.4-0.8-0.7-1.6-0.9-2.5c-0.2-0.8-0.2-1.6-0.4-2.4c0-0.1-0.3-0.2-0.3,0c-0.4,1.6-0.5,4.4,1.1,5.4
			c0.2,0.1,0.4,0.1,0.6-0.1C31.5,85.9,31.6,85.8,31.5,85.6z"/>
	</g>
</g>
<g>
	
		<image style="overflow:visible;opacity:0.75;" width="130" height="145" xlink:href="5929DF0A.png"  transform="matrix(0.24 0 0 0.24 24.0845 74.2014)">
	</image>
	<g>
		<path d="M32.5,82.5l-0.1-0.1l-0.1,0.1c-0.1,0.7-0.1,1.4-0.1,2.1c0,0.7,0.1,1.4,0.2,2.1c0.1,0.2,0.3,0.3,0.5,0.2l0.2-0.2
			C33.7,85.4,32.8,83.7,32.5,82.5z"/>
	</g>
</g>
<g>
	
		<image style="overflow:visible;opacity:0.75;" width="132" height="141" xlink:href="5929DF15.png"  transform="matrix(0.24 0 0 0.24 25.2845 74.6814)">
	</image>
	<g>
		<path d="M34.8,85c0-0.7-0.2-1.4-0.3-2.1l-0.2-0.1l-0.1,0.1c-0.3,0.4-0.4,1-0.4,1.5c0,0.6-0.2,1.2-0.3,1.7c0,0.2,0.1,0.4,0.3,0.4
			l0.2,0C34.6,86.2,34.9,85.6,34.8,85z"/>
	</g>
</g>
<g>
	
		<image style="overflow:visible;opacity:0.75;" width="137" height="147" xlink:href="5929DF16.png"  transform="matrix(0.24 0 0 0.24 26.4845 74.2014)">
	</image>
	<g>
		<path d="M37,82.2c-0.8,0.5-0.8,1.4-1,2.2c-0.3,0.9-1.1,1.5-1.4,2.3c-0.1,0.2,0,0.5,0.3,0.6c0,0,0,0,0,0l0.2,0
			c2.3-0.4,1.9-3.3,2.1-5L37,82.2L37,82.2z"/>
	</g>
</g>
<g>
	
		<image style="overflow:visible;opacity:0.75;" width="135" height="146" xlink:href="5929DF17.png"  transform="matrix(0.24 0 0 0.24 29.3645 73.9614)">
	</image>
	<g>
		<path d="M38.6,82l-0.2,0.2c0.3,0.7,0.4,1.5,0.2,2.2c-0.2,0.7-0.5,1.3-0.9,1.8c-0.3,0.3,0.1,0.7,0.5,0.6c0.9-0.5,1.5-1.4,1.4-2.5
			C39.6,83.5,39.4,82.3,38.6,82z"/>
	</g>
</g>
<g>
	
		<image style="overflow:visible;opacity:0.75;" width="137" height="148" xlink:href="5929DF18.png"  transform="matrix(0.24 0 0 0.24 32.0045 73.0014)">
	</image>
	<g>
		<path d="M42.4,81.2c0-0.1-0.3-0.1-0.2,0.1c0.2,0.9-0.6,2-1.1,2.7c-0.5,0.6-0.8,1.3-0.9,2.1c0,0.2,0.1,0.4,0.3,0.4
			c0.1,0,0.3,0,0.3-0.1c0.6-0.8,1.2-1.7,1.6-2.7C42.8,82.9,42.8,82,42.4,81.2z"/>
	</g>
</g>
<g>
	
		<image style="overflow:visible;opacity:0.75;" width="138" height="146" xlink:href="5929DF1B.png"  transform="matrix(0.24 0 0 0.24 34.4045 72.0414)">
	</image>
	<g>
		<path d="M45.1,80.2l-0.2-0.1l-0.1,0.1c-0.3,0.7-0.4,1.5-0.8,2.2c-0.4,0.7-0.9,1.3-1.3,1.9c-0.2,0.3,0.1,0.8,0.5,0.6
			C44.6,84.2,46,81.9,45.1,80.2z"/>
	</g>
</g>
<g>
	
		<image style="overflow:visible;opacity:0.75;" width="136" height="147" xlink:href="5929DF77.png"  transform="matrix(0.24 0 0 0.24 37.2845 71.5614)">
	</image>
	<g>
		<path d="M47.6,79.8c-0.3,0.4-0.4,0.8-0.6,1.3c-0.2,0.5-0.5,0.9-0.8,1.3c-0.6,0.5-0.9,1.3-0.8,2c0,0.2,0.2,0.3,0.4,0.3
			c0.1,0,0.2-0.1,0.3-0.2c0.3-0.7,0.9-1.3,1.3-2c0.3-0.8,0.5-1.7,0.5-2.5l-0.1-0.1L47.6,79.8z"/>
	</g>
</g>
<g>
	
		<image style="overflow:visible;opacity:0.75;" width="138" height="145" xlink:href="5929DF75.png"  transform="matrix(0.24 0 0 0.24 39.4445 71.0814)">
	</image>
	<g>
		<path d="M50.2,79.4c-0.1-0.1-0.3-0.1-0.3,0.1c0.2,0.8-0.5,1.7-1,2.3c-0.5,0.6-0.9,1.1-1.4,1.7c-0.2,0.3,0.2,0.6,0.4,0.4
			C49.2,83,51.1,81,50.2,79.4z"/>
	</g>
</g>
<g>
	
		<image style="overflow:visible;opacity:0.75;" width="145" height="172" xlink:href="5929DF73.png"  transform="matrix(0.24 0 0 0.24 43.5245 64.1214)">
	</image>
	<g>
		<path d="M56.1,72.4l-0.2-0.1c-0.7,0.7-0.6,1.9-0.8,2.8c-0.4,1.3-0.8,2.5-1.4,3.7c0-0.2,0-0.4,0-0.5l-0.1-0.1l-0.1,0.1
			c-0.2,1.8-2,2.8-1.8,4.7c0,0.2,0.3,0.4,0.5,0.3c0.2,0,0.3-0.2,0.3-0.3c0.1-0.7,0.4-1.3,0.7-1.9c0.1,0.3,0.5,0.5,0.8,0.4
			c0.2-0.1,0.3-0.2,0.4-0.4C55.6,78.3,56.2,75.4,56.1,72.4z"/>
	</g>
</g>
<g>
	
		<image style="overflow:visible;opacity:0.75;" width="134" height="160" xlink:href="5929DF7D.png"  transform="matrix(0.24 0 0 0.24 47.3645 62.2014)">
	</image>
	<g>
		<path d="M57.2,70.5l-0.1-0.1L57,70.6l0,0c-0.2,2.6-0.7,5.1-1.6,7.6c-0.1,0.4,0.5,0.5,0.7,0.2C57.3,75.9,57.7,73.2,57.2,70.5z"/>
	</g>
</g>
<g>
	
		<image style="overflow:visible;opacity:0.75;" width="136" height="162" xlink:href="5929DF7F.png"  transform="matrix(0.24 0 0 0.24 49.5245 61.2414)">
	</image>
	<g>
		<path d="M60.1,72.9c0-1.1,0.1-2.9-1-3.6l-0.2,0l0,0.1c0.9,2.6-0.8,5.5-1.3,8c-0.1,0.4,0.5,0.7,0.8,0.4
			C59.7,76.5,60.3,74.7,60.1,72.9z"/>
	</g>
</g>
<g>
	
		<image style="overflow:visible;opacity:0.75;" width="131" height="146" xlink:href="5929DF72.png"  transform="matrix(0.24 0 0 0.24 52.6445 60.2814)">
	</image>
	<g>
		<path d="M62,70.1c0-0.6-0.1-1.6-0.8-1.7l0,0.1c0.8,0.3-0.2,3.6-0.3,4.2c0,0.2,0.1,0.4,0.4,0.4c0.2,0,0.3-0.1,0.4-0.2
			C62,72,62.1,71,62,70.1z"/>
	</g>
</g>
<g>
	
		<image style="overflow:visible;opacity:0.75;" width="130" height="147" xlink:href="5929DF71.png"  transform="matrix(0.24 0 0 0.24 53.8445 57.8814)">
	</image>
	<g>
		<path d="M62.5,66.2l-0.2-0.1l-0.1,0.1c-0.3,1.5-0.4,3.1-0.1,4.7c0,0.2,0.2,0.3,0.4,0.3c0.1,0,0.3-0.1,0.3-0.3
			C63,69.3,62.9,67.7,62.5,66.2z"/>
	</g>
</g>
<g>
	
		<image style="overflow:visible;opacity:0.75;" width="133" height="153" xlink:href="5929DF76.png"  transform="matrix(0.24 0 0 0.24 39.2045 11.8014)">
	</image>
	<g>
		<path d="M48.8,20c-2.1,0.9-1.3,4.3-0.9,6c0.1,0.4,0.7,0.4,0.7,0c-0.2-2-0.1-3.9,0.4-5.9L48.8,20z"/>
	</g>
</g>
<g>
	
		<image style="overflow:visible;opacity:0.75;" width="133" height="154" xlink:href="5929DF70.png"  transform="matrix(0.24 0 0 0.24 41.1245 13.4814)">
	</image>
	<g>
		<path d="M50.1,24.2c0-0.8,0.3-2-0.3-2.6l-0.2,0c-0.7,2.2-0.5,4.6,0.7,6.6c0.1,0.3,0.7,0.3,0.7-0.1C50.9,26.7,50.1,25.5,50.1,24.2z
			"/>
	</g>
</g>
<g>
	
		<image style="overflow:visible;opacity:0.75;" width="135" height="137" xlink:href="5929DF0E.png"  transform="matrix(0.24 0 0 0.24 40.8845 19.7214)">
	</image>
	<g>
		<path d="M51.2,30.4c-0.7-0.9-1.4-1.7-2.1-2.6L49,27.9c0.6,0.9,1.3,1.8,2,2.7C51.1,30.7,51.3,30.5,51.2,30.4z"/>
	</g>
</g>
<g>
	
		<image style="overflow:visible;opacity:0.75;" width="140" height="141" xlink:href="5929DF56.png"  transform="matrix(0.24 0 0 0.24 44.2445 21.8814)">
	</image>
	<g>
		<path d="M54.2,31.7c-0.6-0.5-1-1.1-1.6-1.6c-0.1-0.1-0.2,0.1-0.2,0.2c0.4,0.7,0.5,1.4,1,2c0.4,0.5,1,1,1.6,1.3
			c0.2,0.1,0.4,0,0.5-0.2l0-0.2C55.5,32.4,54.8,32.1,54.2,31.7z"/>
	</g>
</g>
<g>
	
		<image style="overflow:visible;opacity:0.75;" width="132" height="131" xlink:href="5929DF55.png"  transform="matrix(0.24 0 0 0.24 42.8045 10.3614)">
	</image>
	<g>
		<path d="M52.3,18.7c-0.1-0.1-0.2-0.2-0.4-0.1c-0.2,0-0.3,0.2-0.4,0.4l-0.3,0.3L51,19.5l0.1,0.2c0.1,0,0.3,0,0.4,0l0.4-0.1
			C52.2,19.4,52.6,19.1,52.3,18.7z"/>
	</g>
</g>
<g>
	
		<image style="overflow:visible;opacity:0.75;" width="153" height="128" xlink:href="5929DF52.png"  transform="matrix(0.24 0 0 0.24 49.7645 9.8814)">
	</image>
	<g>
		<path d="M64.2,18c-2.1-0.1-4.2,0-6.2,0.2l0,0.2c2.1,0.2,4.2,0.2,6.2,0c0.1,0,0.2-0.1,0.2-0.3L64.2,18z"/>
	</g>
</g>
<g>
	
		<image style="overflow:visible;opacity:0.75;" width="170" height="155" xlink:href="5929DF2D.png"  transform="matrix(0.24 0 0 0.24 59.8445 10.3614)">
	</image>
	<g>
		<path d="M68,18.5L68,18.5c2.2,0.4,4.3,1.3,6.1,2.6c1.5,1.3,2.9,2.8,4.1,4.4l0.3,0l0.1-0.2C77.8,20.7,72.1,18.6,68,18.5z"/>
	</g>
</g>
<g>
	
		<image style="overflow:visible;opacity:0.75;" width="134" height="134" xlink:href="5929DF2E.png"  transform="matrix(0.24 0 0 0.24 70.6445 18.2814)">
	</image>
	<g>
		<path d="M80.7,27.5c-0.1-0.4-0.5-0.8-0.9-0.9l-0.5-0.1l-0.2,0l-0.1,0l0,0l-0.1,0.1l0,0l0,0.1l0.1,0.2l0.3,0.5l0.1,0.2l0,0l0.1,0.1
			l0.2,0.3l0.2,0.2c0.2,0.1,0.4,0.2,0.6,0l0,0l0.1,0C80.6,27.9,80.7,27.7,80.7,27.5z"/>
	</g>
</g>
<g>
	
		<image style="overflow:visible;opacity:0.75;" width="129" height="130" xlink:href="5929DF2B.png"  transform="matrix(0.24 0 0 0.24 70.8845 20.9214)">
	</image>
	<g>
		<path d="M79.7,29.3c-0.1-0.1-0.3-0.3-0.5-0.3l-0.2,0.1v0.1l0,0.3l0,0.2l0.1,0.1c0,0.1,0.2,0.2,0.3,0.2c0,0,0,0,0,0l0.2-0.2
			C79.8,29.8,79.8,29.5,79.7,29.3z"/>
	</g>
</g>
<g>
	
		<image style="overflow:visible;opacity:0.75;" width="145" height="145" xlink:href="5929DF32.png"  transform="matrix(0.24 0 0 0.24 55.7645 46.3614)">
	</image>
	<g>
		<path d="M67.2,54.8c-0.7-0.4-1.6-0.2-2.2,0.3c-0.2,0.2-0.3,0.3-0.4,0.6c-0.4,0.5-0.6,1.1-0.5,1.7c0.3,1.2,1.6,1.9,2.8,1.6
			c0.3-0.1,0.5-0.2,0.7-0.3c1-0.7,1.2-2.1,0.5-3.1C67.8,55.2,67.5,54.9,67.2,54.8z"/>
	</g>
</g>
<g>
	
		<image style="overflow:visible;opacity:0.75;" width="151" height="152" xlink:href="5929DF35.png"  transform="matrix(0.24 0 0 0.24 60.5645 34.3614)">
	</image>
	<g>
		<path d="M73.9,42.9c-1-0.6-2.3-0.5-3.3,0.1c-1,0.6-1.7,1.6-1.8,2.8c-0.1,1.1,0.2,2.2,1,3l0.2-0.1c-0.5-1.5-0.2-3.1,0.6-4.4
			c0.6-0.9,1.8-1.2,2.7-0.8c0.7,0.5,1.1,1.3,1.1,2.2l0.2,0.2l0.2-0.2C74.8,44.6,74.9,43.6,73.9,42.9z"/>
	</g>
</g>
<g>
	
		<image style="overflow:visible;opacity:0.75;" width="140" height="141" xlink:href="5929DF36.png"  transform="matrix(0.24 0 0 0.24 58.6445 41.5614)">
	</image>
	<g>
		<path d="M69.3,49.6l-0.2,0.1c0.2,0.4,0.2,0.9-0.1,1.3c-0.4,0.3-0.9,0.5-1.3,0.6c-0.7,0.3-1.1,0.9-1.1,1.7l0.2,0.1l0.1-0.2
			c-0.1-0.9,0.7-0.7,1.3-0.8c0.5,0,1-0.2,1.4-0.6C70.7,51.1,69.8,50.4,69.3,49.6z"/>
	</g>
</g>
<g>
	
		<image style="overflow:visible;opacity:0.75;" width="145" height="159" xlink:href="5929DF34.png"  transform="matrix(0.24 0 0 0.24 62.7245 38.4414)">
	</image>
	<g>
		<path d="M75.3,46.7c-0.1-0.3-0.4-0.2-0.5,0.1c-0.2,1.5-0.6,2.9-1.2,4.2c-0.3,0.6-0.7,1.3-1.2,1.8c-0.2,0.2-0.9,1-0.8,1.2l-0.7,0.4
			l0.1,0.2C73.5,53.3,76.3,49.7,75.3,46.7z"/>
	</g>
</g>
<g>
	
		<image style="overflow:visible;opacity:0.75;" width="157" height="197" xlink:href="5929DFC9.png"  transform="matrix(0.24 0 0 0.24 16.4045 -5.9586)">
	</image>
	<g>
		<path d="M32,18.9c-1-0.8-2-1.6-3.1-2.4c-1.3-1.3-2.2-3-2.6-4.9c-0.8-3.4,0.4-7,3.1-9.2l0-0.2l-0.1,0c-3.6,0.4-4.9,5.5-4.7,8.5
			c0.5,4,3.2,7.4,7,8.7C31.9,19.4,32.2,19.1,32,18.9z"/>
	</g>
</g>
<g>
	
		<image style="overflow:visible;opacity:0.75;" width="156" height="176" xlink:href="5929DFD7.png"  transform="matrix(0.24 0 0 0.24 14.0045 4.142071e-02)">
	</image>
	<g>
		<path d="M29.3,19.5c-1.2-1.5-3.1-2.3-4.3-3.8c-1.3-2.2-1.7-4.8-1.1-7.3l-0.2-0.1c-2.2,3.6-1.1,8.3,2.5,10.5
			c-0.9-0.4-2-0.5-2.6-1.4c-0.4-0.7-0.8-1.4-1.6-1.6l0,0.2c0.4,0.1,0.5,1.2,0.6,1.6c0.1,0.4,0.2,0.7,0.4,1c0.8,0.9,1.9,1.5,3.1,1.7
			c0.6,0.2,1.1-0.5,0.8-0.9c0.6,0.3,1.2,0.6,1.8,0.8C29.2,20.2,29.6,19.8,29.3,19.5z"/>
	</g>
</g>
<g>
	
		<image style="overflow:visible;opacity:0.75;" width="140" height="134" xlink:href="5929DFD9.png"  transform="matrix(0.24 0 0 0.24 14.0045 11.0814)">
	</image>
	<g>
		<path d="M25.3,20.2c-0.6,0-1.1-0.2-1.6-0.4c-0.4-0.3-0.9-0.5-1.3-0.6c-0.1,0-0.2,0.1-0.1,0.2c0.7,1,1.9,2,3.2,1.5
			C25.6,20.7,25.6,20.2,25.3,20.2z"/>
	</g>
</g>
<g>
	
		<image style="overflow:visible;opacity:0.75;" width="146" height="163" xlink:href="5929DFDB.png"  transform="matrix(0.24 0 0 0.24 20.0045 -7.1586)">
	</image>
	<g>
		<path d="M32.7,0.9c-1.4,1.2-2.9,1.8-3.7,3.5c-0.8,1.5-1.1,3.3-0.8,5c0.1,0.4,0.8,0.6,0.9,0.1C29.4,8,29.8,6.5,30.3,5
			c0.6-1.5,1.9-2.5,2.5-3.9l-0.1-0.2L32.7,0.9z"/>
	</g>
</g>
<g>
	
		<image style="overflow:visible;opacity:0.75;" width="150" height="151" xlink:href="5929DFD8.png"  transform="matrix(0.24 0 0 0.24 20.7245 4.8414)">
	</image>
	<g>
		<path d="M34.6,18.1c-0.2-0.5-0.6-0.6-1-0.8c-0.7-0.3-1.3-0.7-1.9-1.1c-1.3-0.7-2.3-1.8-2.8-3.2c0-0.1-0.3-0.1-0.2,0.1
			c0.2,1.5,0.9,2.9,2,3.9c0.8,0.7,2.6,2.5,3.8,1.7C34.7,18.6,34.7,18.4,34.6,18.1z"/>
	</g>
</g>
<g>
	
		<image style="overflow:visible;opacity:0.75;" width="153" height="157" xlink:href="5929DFDF.png"  transform="matrix(0.24 0 0 0.24 22.6445 -7.3986)">
	</image>
	<g>
		<path d="M37.3,1.1c-1.2-0.7-2.8,0.2-3.9,1c-1.7,1.4-2.7,3.4-2.7,5.6c0,0.3,0.5,0.6,0.6,0.2c0.5-1.8,1.3-3.4,2.6-4.8
			c0.7-0.6,2.3-2.1,3.3-1.9L37.3,1.1z"/>
	</g>
</g>
<g>
	
		<image style="overflow:visible;opacity:0.75;" width="153" height="162" xlink:href="5929DFDA.png"  transform="matrix(0.24 0 0 0.24 22.6445 1.4814)">
	</image>
	<g>
		<path d="M37.3,17.6c-0.5-1.4-2.1-1.8-3.3-2.6c-1.9-1-3-3.2-2.5-5.3l-0.1-0.1l-0.1,0.1c-0.7,1.6-0.5,3.4,0.5,4.8
			c1.2,1.7,2.9,3,4.9,3.8c0.2,0.1,0.5,0,0.6-0.3c0,0,0,0,0,0L37.3,17.6z"/>
	</g>
</g>
<g>
	
		<image style="overflow:visible;opacity:0.75;" width="159" height="154" xlink:href="5929DFC6.png"  transform="matrix(0.24 0 0 0.24 25.2845 -7.3986)">
	</image>
	<g>
		<path d="M41.1,0.6C39,0.4,37,1.1,35.5,2.5c-1.2,1.1-2,2.7-2,4.4c0,0.3,0.4,0.5,0.6,0.2c0.5-1.2,1.2-2.4,2-3.4
			c1.4-1.4,3.1-2.4,5.1-2.8l0.1-0.2L41.1,0.6z"/>
	</g>
</g>
<g>
	
		<image style="overflow:visible;opacity:0.75;" width="152" height="166" xlink:href="5929DFC7.png"  transform="matrix(0.24 0 0 0.24 25.2845 0.7614)">
	</image>
	<g>
		<path d="M37.4,14.8c-0.7-0.6-1.5-1.2-2.2-1.9c-0.9-1.1-1.4-2.5-1.4-3.9l-0.1-0.1L33.6,9c-0.5,1.7-0.1,3.6,1.2,4.9
			c0.7,0.9,1.5,1.6,2.2,2.5c0.6,0.8,1.2,1.5,2,2.1c0.2,0.2,0.7,0.1,0.7-0.3C39.7,16.7,38.5,15.7,37.4,14.8z"/>
	</g>
</g>
<g>
	
		<image style="overflow:visible;opacity:0.75;" width="153" height="163" xlink:href="5929DFC8.png"  transform="matrix(0.24 0 0 0.24 28.4045 -8.1186)">
	</image>
	<g>
		<path d="M42.9,0.1c-1,0.5-1.8,1.3-2.8,1.8c-0.8,0.4-1.4,0.9-2.1,1.5c-1.3,1.4-1.8,3.3-1.5,5.2c0,0.2,0.2,0.3,0.4,0.3
			c0.2,0,0.3-0.2,0.3-0.3c0.2-1.9,1.1-3.7,2.5-5.1c0.6-0.5,1.3-0.8,1.8-1.3c0.5-0.6,1-1.2,1.3-1.9L42.9,0.1z"/>
	</g>
</g>
<g>
	
		<image style="overflow:visible;opacity:0.75;" width="143" height="160" xlink:href="5929DFE4.png"  transform="matrix(0.24 0 0 0.24 29.3645 2.4414)">
	</image>
	<g>
		<path d="M40.5,15.5c-0.7-0.6-1.4-1.3-1.8-2.1c-0.3-0.9-0.5-1.8-0.6-2.8l-0.1-0.1l-0.1,0.1c-0.4,1.3-0.3,2.8,0.3,4.1
			c0.9,1.2,1.8,2.5,2.5,3.9c0.1,0.2,0.4,0.3,0.6,0.2l0.2-0.2C41.8,17.4,41.4,16.2,40.5,15.5z"/>
	</g>
</g>
<g>
	
		<image style="overflow:visible;opacity:0.75;" width="143" height="150" xlink:href="5929DFE7.png"  transform="matrix(0.24 0 0 0.24 32.4845 -7.8786)">
	</image>
	<g>
		<path d="M44.5,0.2c-0.7,0.7-1.4,1.5-1.8,2.4c-0.6,0.9-1.3,1.8-2,2.7c-0.3,0.3,0.2,0.7,0.5,0.5c0.9-0.7,1.7-1.6,2.2-2.7
			c0.6-0.9,1.1-1.8,1.3-2.8L44.5,0.2z"/>
	</g>
</g>
<g>
	
		<image style="overflow:visible;opacity:0.75;" width="142" height="162" xlink:href="5929DFE5.png"  transform="matrix(0.24 0 0 0.24 33.2045 1.2414)">
	</image>
	<g>
		<path d="M44.2,14.7c-1.3-1.5-2.1-3.3-2.2-5.3c0-0.1-0.2-0.1-0.2,0c-1.4,3.1,1.2,5.7,2.6,8.3c0.2,0.3,0.7,0.4,0.8,0
			C45.3,16.6,44.9,15.5,44.2,14.7z"/>
	</g>
</g>
<g>
	
		<image style="overflow:visible;opacity:0.75;" width="144" height="162" xlink:href="5929DFE3.png"  transform="matrix(0.24 0 0 0.24 35.1245 0.7614)">
	</image>
	<g>
		<path d="M46.4,14.3c-1.4-1.5-2.3-3.3-2.8-5.3l-0.1-0.1l-0.1,0.1c-0.5,3.2,1.9,5.8,3.4,8.4c0.2,0.3,0.6,0.1,0.7-0.1
			C48,16.1,47.1,15.1,46.4,14.3z"/>
	</g>
</g>
<g>
	
		<image style="overflow:visible;opacity:0.75;" width="152" height="160" xlink:href="5929DFEC.png"  transform="matrix(0.24 0 0 0.24 36.8045 1.4814)">
	</image>
	<g>
		<path d="M49.1,14.3c-1.6-1.2-2.9-2.8-3.8-4.6C45.2,9.5,45,9.6,45,9.8c1.2,3,3,5.6,5.3,7.9c0.2,0.2,0.4,0.2,0.6,0.1l0.2-0.3
			C51.4,16,50,15.1,49.1,14.3z"/>
	</g>
</g>
<g>
	
		<image style="overflow:visible;opacity:0.75;" width="163" height="160" xlink:href="5929DFEF.png"  transform="matrix(0.24 0 0 0.24 39.6845 1.2414)">
	</image>
	<g>
		<path d="M56.6,16.6c-1.2-0.9-2.3-2.1-3.5-3c-1.8-1.2-3.6-2.6-5.2-4.1c-0.1-0.1-0.3,0-0.2,0.1c1.1,2,2.6,3.8,4.5,5.1
			c1.3,1.1,2.3,2.9,4.2,2.7c0.2,0,0.4-0.3,0.4-0.5L56.6,16.6z"/>
	</g>
</g>
<g>
	
		<image style="overflow:visible;opacity:0.75;" width="169" height="166" xlink:href="5929DFED.png"  transform="matrix(0.24 0 0 0.24 41.3645 -0.9186)">
	</image>
	<g>
		<path d="M55.4,12.3c-1.2-0.7-2.3-1.6-3.3-2.5C51.5,9.1,50,8.2,50,7.2l-0.2-0.1c-0.8,1.3,1.5,3.5,2.3,4.3c2.2,1.9,4.5,3.7,7,5.2
			c0.2,0.1,0.5,0.1,0.6-0.1c0,0,0,0,0,0l0.1-0.3C59.6,14.2,56.9,13.2,55.4,12.3z"/>
	</g>
</g>
<g>
	
		<image style="overflow:visible;opacity:0.75;" width="168" height="157" xlink:href="5929DFE2.png"  transform="matrix(0.24 0 0 0.24 45.2045 1.0014)">
	</image>
	<g>
		<path d="M60,12.7c-2.2-1.1-4.4-2.2-6.6-3.5l-0.2,0.2c1.4,1.4,2.9,2.6,4.6,3.6c0.8,0.5,1.6,1,2.4,1.6c0.8,0.6,1.5,1.4,2.3,1.9
			c0.2,0.2,0.6,0.1,0.7-0.1c0.1-0.1,0.1-0.2,0.1-0.4C63.2,14.3,61.4,13.5,60,12.7z"/>
	</g>
</g>
<g>
	
		<image style="overflow:visible;opacity:0.75;" width="167" height="156" xlink:href="5929DFE6.png"  transform="matrix(0.24 0 0 0.24 48.8045 1.0014)">
	</image>
	<g>
		<path d="M63.3,11.9c-1.8-1.3-4-2.3-6.2-2.7L57,9.4l0.1,0.2c1.8,1,3.5,2.2,5.2,3.3c0.7,0.4,1.3,0.9,2,1.4c0.7,0.6,1.1,1.4,1.8,2
			c0.2,0.2,0.5,0.1,0.7-0.1c0,0,0,0,0,0l0.1-0.2C67.2,14.1,64.6,12.6,63.3,11.9z"/>
	</g>
</g>
<g>
	
		<image style="overflow:visible;opacity:0.75;" width="175" height="163" xlink:href="5929DFE1.png"  transform="matrix(0.24 0 0 0.24 50.2445 -0.4386)">
	</image>
	<g>
		<path d="M66.5,11.6c-2.6-1.5-5.4-2.3-8-3.9l-0.2,0l0,0.2c1.9,1.5,3.9,2.8,6,3.9c1.9,1.1,3.5,2.6,4.8,4.4c0.2,0.3,0.6,0.3,0.9,0.1
			c0.1-0.1,0.2-0.2,0.2-0.4C70.3,13.9,68,12.5,66.5,11.6z"/>
	</g>
</g>
<g>
	
		<image style="overflow:visible;opacity:0.75;" width="183" height="181" xlink:href="5929DF83.png"  transform="matrix(0.24 0 0 0.24 52.6445 -2.5986)">
	</image>
	<g>
		<path d="M70.5,10.7C68,8.1,64.6,6.3,61,5.6l-0.2,0.1l0.1,0.2c3,1.2,5.7,3,8,5.2c-2.1-1.5-4.5-2.6-7.1-3.3l-0.1,0.1L61.7,8
			c2.4,1.1,4.7,2.5,6.7,4.2c1.5,1.4,2.1,3.8,4,4.7c0.1,0.1,0.3,0.1,0.4,0c0.2,0.5,0.3,1,0.4,1.5c0,0.2,0.3,0.4,0.5,0.4
			c0.2,0,0.3-0.1,0.3-0.3C75.5,15.8,72.2,12.5,70.5,10.7z"/>
	</g>
</g>
<g>
	
		<image style="overflow:visible;opacity:0.75;" width="139" height="153" xlink:href="5929DF81.png"  transform="matrix(0.24 0 0 0.24 65.1245 4.3614)">
	</image>
	<g>
		<path d="M76.3,15.5c-0.7-1.2-1.7-2.3-2.9-3l-0.1,0.2c0.8,0.8,1.5,1.7,2,2.7c0.4,1.1-0.2,2.2-0.4,3.3c0,0.2,0.1,0.3,0.3,0.3
			l0.2-0.1C76.3,18.1,76.8,16.7,76.3,15.5z"/>
	</g>
</g>
<g>
	
		<image style="overflow:visible;opacity:0.75;" width="135" height="141" xlink:href="5929DF87.png"  transform="matrix(0.24 0 0 0.24 67.7645 8.4414)">
	</image>
	<g>
		<path d="M78,17.8c-0.1-0.3-0.3-0.7-0.4-1.1l-0.1-0.1l-0.1,0.1c-0.1,0.5-0.4,1-0.6,1.4c-0.2,0.4-0.5,0.8-0.8,1.1
			c-0.1,0.2-0.1,0.5,0.1,0.6c0,0,0,0,0,0l0.1,0c0.8,0.4,1.5-0.4,1.7-1.1C78,18.5,78,18.2,78,17.8z"/>
	</g>
</g>
<g>
	
		<image style="overflow:visible;opacity:0.75;" width="133" height="132" xlink:href="5929DF82.png"  transform="matrix(0.24 0 0 0.24 69.2045 11.3214)">
	</image>
	<g>
		<path d="M78.8,19.4L78,19.7l-0.3,0.2c-0.1,0.1-0.3,0.3-0.3,0.4c-0.1,0.2,0,0.4,0.2,0.5c0.4,0.2,0.9,0,1.1-0.4
			c0.2-0.3,0.3-0.6,0.3-0.9L78.8,19.4z"/>
	</g>
</g>
<g>
	
		<image style="overflow:visible;opacity:0.75;" width="131" height="130" xlink:href="5929DFBD.png"  transform="matrix(0.24 0 0 0.24 70.1645 13.0014)">
	</image>
	<g>
		<path d="M79.4,21.3L79.4,21.3l-0.2-0.2l0,0c-0.1,0-0.3,0-0.4,0.1c-0.2,0.1-0.4,0.2-0.5,0.3c-0.1,0.1-0.1,0.3,0,0.4l0.2,0.1
			c0.3,0,0.5-0.1,0.7-0.2C79.3,21.7,79.4,21.5,79.4,21.3z"/>
	</g>
</g>
<g>
	
		<image style="overflow:visible;opacity:0.75;" width="132" height="156" xlink:href="5929DFBE.png"  transform="matrix(0.24 0 0 0.24 36.3245 -7.6386)">
	</image>
	<g>
		<path d="M45.7,0.6c-1.4,2-1.7,4.6-0.8,6.9c0.1,0.3,0.7,0.3,0.7-0.1c-0.4-2.2-0.2-4.5,0.4-6.6C46,0.6,45.8,0.5,45.7,0.6z"/>
	</g>
</g>
<g>
	
		<image style="overflow:visible;opacity:0.75;" width="132" height="150" xlink:href="5929DFBF.png"  transform="matrix(0.24 0 0 0.24 38.0045 -6.9186)">
	</image>
	<g>
		<path d="M47.1,4.7c-0.3-1.1-0.5-2.2-0.6-3.3l-0.1-0.1l-0.1,0.1c-0.4,1.8-0.2,3.8,0.6,5.5C47,7,47.3,7,47.4,6.9l0.1-0.2
			C47.6,6,47.5,5.3,47.1,4.7z"/>
	</g>
</g>
<g>
	
		<image style="overflow:visible;opacity:0.75;" width="134" height="145" xlink:href="5929DF84.png"  transform="matrix(0.24 0 0 0.24 39.2045 -7.1586)">
	</image>
	<g>
		<path d="M47.5,1c0-0.1-0.2-0.1-0.3,0c0,1.6,0.6,3.1,1.5,4.4c0.1,0.2,0.6,0.2,0.6-0.1C49.4,3.7,47.6,2.7,47.5,1z"/>
	</g>
</g>
<g>
	
		<image style="overflow:visible;opacity:0.75;" width="147" height="148" xlink:href="5929DF85.png"  transform="matrix(0.24 0 0 0.24 39.9245 -7.1586)">
	</image>
	<g>
		<path d="M53,5.8c-0.5-0.9-1.2-1.7-2.1-2.3C50,2.7,49.2,1.8,48.3,1l-0.2,0.2c0.6,1,1.3,2,2,3c0.7,0.8,1.5,1.5,2.3,2.1
			c0.2,0.1,0.4,0.1,0.5-0.1C53,6,53.1,5.9,53,5.8z"/>
	</g>
</g>
<g>
	
		<image style="overflow:visible;opacity:0.75;" width="149" height="144" xlink:href="5929DF86.png"  transform="matrix(0.24 0 0 0.24 42.0845 -6.6786)">
	</image>
	<g>
		<path d="M55.6,5.3c-1.2-1.9-3-3.3-5.2-3.9c-0.1,0-0.2,0.2-0.1,0.3c1.9,0.8,3.1,2.9,4.8,4.1c0.2,0.1,0.4,0.1,0.5-0.1
			C55.7,5.6,55.7,5.4,55.6,5.3z"/>
	</g>
</g>
<g>
	
		<image style="overflow:visible;opacity:0.75;" width="153" height="146" xlink:href="E30D2FA1.png"  transform="matrix(0.24 0 0 0.24 44.9645 -6.9186)">
	</image>
	<g>
		<path d="M57.3,2.6c-1.2-0.8-2.6-1.2-4.1-1.3l-0.1,0.1l0.1,0.1c1.1,0.6,2.3,1.2,3.3,1.9c1,0.7,1.6,1.7,2.5,2.4
			c0.2,0.1,0.4,0.1,0.6-0.1c0,0,0,0,0,0l0.1-0.2C59.7,4.2,58.3,3.2,57.3,2.6z"/>
	</g>
</g>
<g>
	
		<image style="overflow:visible;opacity:0.75;" width="154" height="143" xlink:href="E30D2FA3.png"  transform="matrix(0.24 0 0 0.24 49.7645 -5.9586)">
	</image>
	<g>
		<path d="M64.5,5.6c-1.9-1.5-4.1-2.6-6.3-3.4C58,2.1,57.9,2.3,58,2.4c2.1,1,4,2.5,6.1,3.7c0.1,0.1,0.3,0.1,0.4-0.1
			C64.7,5.9,64.6,5.7,64.5,5.6z"/>
	</g>
</g>
<g>
	
		<image style="overflow:visible;opacity:0.75;" width="131" height="139" xlink:href="E30D2FA0.png"  transform="matrix(0.24 0 0 0.24 43.5245 12.7614)">
	</image>
	<g>
		<path d="M52.7,21.7l-0.1-0.1l-0.1,0c-0.1-0.3-0.2-0.5-0.3-0.8l-0.2,0c-0.2,0.4-0.3,0.9-0.2,1.4c0,0.5,0.1,1.1,0.2,1.6
			c0.1,0.2,0.3,0.3,0.5,0.2c0,0,0,0,0,0l0.2-0.2c0.1-0.3,0.2-0.6,0.1-1C52.9,22.5,52.8,22.1,52.7,21.7z"/>
	</g>
</g>
<g>
	
		<image style="overflow:visible;opacity:0.75;" width="128" height="133" xlink:href="E30D2FAF.png"  transform="matrix(0.24 0 0 0.24 47.6045 12.7614)">
	</image>
	<g>
		<path d="M56,21.1L55.9,21l-0.1,0.1c-0.1,0.5,0,1-0.1,1.4c0,0.2,0.2,0.2,0.3,0.1C56.1,22.1,56.2,21.6,56,21.1z"/>
	</g>
</g>
<g>
	
		<image style="overflow:visible;opacity:0.75;" width="129" height="135" xlink:href="E30D2FA2.png"  transform="matrix(0.24 0 0 0.24 45.2045 17.3214)">
	</image>
	<g>
		<path d="M53.8,25.5l-0.2-0.1l-0.1,0.1c-0.2,0.6-0.3,1.2-0.1,1.8c0.1,0.2,0.4,0.3,0.5,0.1C54.1,26.8,54,26.1,53.8,25.5z"/>
	</g>
</g>
<g>
	
		<image style="overflow:visible;opacity:0.75;" width="128" height="133" xlink:href="E30D2FA6.png"  transform="matrix(0.24 0 0 0.24 47.6045 16.6014)">
	</image>
	<g>
		<path d="M56.1,24.8c-0.1-0.1-0.3-0.1-0.3,0.1c0,0.3,0,0.5,0,0.8c0,0.3,0,0.5,0,0.8l0.2,0.2l0.2-0.2C56.4,25.8,56.3,25.3,56.1,24.8
			z"/>
	</g>
</g>
<g>
	
		<image style="overflow:visible;opacity:0.75;" width="129" height="134" xlink:href="E30D2FA7.png"  transform="matrix(0.24 0 0 0.24 47.3645 20.4414)">
	</image>
	<g>
		<path d="M55.9,28.6l-0.2,0c-0.1,0.3-0.2,0.5-0.2,0.8c0,0.3,0,0.6,0.1,0.9c0.1,0.1,0.2,0.2,0.4,0.1c0,0,0,0,0,0l0.1-0.1
			C56.3,29.7,56.2,29.1,55.9,28.6z"/>
	</g>
</g>
<g>
	
		<image style="overflow:visible;opacity:0.75;" width="128" height="133" xlink:href="E30D2FBC.png"  transform="matrix(0.24 0 0 0.24 50.0045 23.0814)">
	</image>
	<g>
		<path d="M58.6,32.6c-0.1-0.4-0.2-0.8-0.2-1.2l-0.2-0.1l-0.1,0.1c-0.2,0.5-0.1,0.9,0.1,1.4C58.4,32.8,58.7,32.8,58.6,32.6z"/>
	</g>
</g>
<g>
	
		<image style="overflow:visible;opacity:0.75;" width="128" height="130" xlink:href="E30D2FBD.png"  transform="matrix(0.24 0 0 0.24 52.6445 25.7214)">
	</image>
	<g>
		<path d="M61.2,34.7C61,34.5,61,34.2,61,34l-0.1-0.1l-0.1,0.1c0,0.3,0,0.6,0.2,0.9C61,35,61.2,34.8,61.2,34.7z"/>
	</g>
</g>
<g>
	
		<image style="overflow:visible;opacity:0.75;" width="129" height="134" xlink:href="E30D2FBE.png"  transform="matrix(0.24 0 0 0.24 60.8045 15.8814)">
	</image>
	<g>
		<path d="M69.6,24.8c0-0.3-0.2-0.5-0.4-0.7L69,24.3l0,0.3l0,0.5c0,0.3,0.1,0.6,0.2,0.9c0.1,0.1,0.2,0.2,0.3,0.1c0,0,0,0,0,0
			l0.1-0.2C69.7,25.5,69.7,25.1,69.6,24.8z"/>
	</g>
</g>
<g>
	
		<image style="overflow:visible;opacity:0.75;" width="128" height="133" xlink:href="E30D2F84.png"  transform="matrix(0.24 0 0 0.24 63.6845 13.7214)">
	</image>
	<g>
		<path d="M72.2,22.5c-0.1-0.3-0.1-0.5-0.2-0.8l-0.2,0c-0.2,0.5-0.1,1.1,0.2,1.6l0.3,0.1l0.1-0.2C72.4,23,72.3,22.8,72.2,22.5z"/>
	</g>
</g>
<g>
	
		<image style="overflow:visible;opacity:0.75;" width="129" height="134" xlink:href="E30D2F9B.png"  transform="matrix(0.24 0 0 0.24 66.0845 15.8814)">
	</image>
	<g>
		<path d="M74.5,24.2c0-0.1-0.3-0.1-0.3,0c0,0.6,0.4,1.1,0.4,1.6l0.2,0.1l0.1-0.1C75,25.2,74.6,24.8,74.5,24.2z"/>
	</g>
</g>
<g>
	
		<image style="overflow:visible;opacity:0.75;" width="128" height="131" xlink:href="E30D2F9C.png"  transform="matrix(0.24 0 0 0.24 63.9245 18.5214)">
	</image>
	<g>
		<path d="M72.4,26.6l-0.2-0.1l-0.1,0.2c0.1,0.3,0.2,0.6,0.2,0.9c0,0.2,0.3,0.2,0.3,0C72.6,27.3,72.6,26.9,72.4,26.6z"/>
	</g>
</g>
<g>
	
		<image style="overflow:visible;opacity:0.75;" width="129" height="134" xlink:href="E30D2F9F.png"  transform="matrix(0.24 0 0 0.24 67.7645 20.9214)">
	</image>
	<g>
		<path d="M76.1,29.1l-0.2,0l-0.1,0.1c0,0.6,0.2,1.1,0.3,1.7c0,0.3,0.4,0.2,0.5,0C76.7,30.2,76.5,29.6,76.1,29.1z"/>
	</g>
</g>
<g>
	
		<image style="overflow:visible;opacity:0.75;" width="128" height="132" xlink:href="E30D2F9D.png"  transform="matrix(0.24 0 0 0.24 66.3245 23.8014)">
	</image>
	<g>
		<path d="M75,32l-0.1-0.2l-0.2,0.1l-0.2,0.6c0,0.2,0,0.5,0,0.7c0,0.1,0.1,0.2,0.3,0.2c0,0,0,0,0,0l0.1-0.1C75,33.2,75,33,75,32.8
			C75,32.5,75,32.3,75,32z"/>
	</g>
</g>
<g>
	
		<image style="overflow:visible;opacity:0.75;" width="128" height="133" xlink:href="E30D2F9A.png"  transform="matrix(0.24 0 0 0.24 68.2445 26.2014)">
	</image>
	<g>
		<path d="M76.7,34.4c-0.1-0.1-0.3-0.1-0.3,0.1c0,0.4,0,0.9-0.1,1.3l0.2,0.2l0.2-0.1C77,35.4,77,34.9,76.7,34.4z"/>
	</g>
</g>
<g>
	
		<image style="overflow:visible;opacity:0.75;" width="127" height="132" xlink:href="E30D2F85.png"  transform="matrix(0.24 0 0 0.24 59.1245 12.7614)">
	</image>
	<g>
		<path d="M67.3,21c-0.1,0.3-0.2,0.7-0.1,1c0,0.2,0.3,0.2,0.3,0c0-0.3,0-0.7,0.1-1C67.6,20.9,67.3,20.9,67.3,21z"/>
	</g>
</g>
<g>
	
		<image style="overflow:visible;opacity:0.75;" width="132" height="139" xlink:href="E30D2F87.png"  transform="matrix(0.24 0 0 0.24 54.0845 11.0814)">
	</image>
	<g>
		<path d="M63.4,20.9l0-0.1c0-0.5-0.1-1-0.4-1.5l-0.3,0l-0.1,0l-0.1,0.1l0,0.1c-0.1,0.4-0.2,0.8-0.2,1.3c-0.1,0.5-0.1,1.1,0.2,1.5
			c0.1,0.2,0.4,0.2,0.5,0.1c0,0,0,0,0,0l0.1-0.1c0.2-0.2,0.3-0.5,0.3-0.8l0.2-0.1C63.6,21.2,63.5,21,63.4,20.9z"/>
	</g>
</g>
<g>
	
		<image style="overflow:visible;opacity:0.75;" width="131" height="134" xlink:href="E30D2F8A.png"  transform="matrix(0.24 0 0 0.24 60.5645 20.9214)">
	</image>
	<g>
		<path d="M69.7,29.7c-0.2-0.3-0.4-0.4-0.7-0.7c-0.1-0.1-0.3,0-0.2,0.2c0.2,0.4,0.3,0.9,0.4,1.4c0,0.2,0.2,0.3,0.3,0.2l0,0l0.2-0.2
			C69.9,30.4,69.8,30,69.7,29.7z"/>
	</g>
</g>
<g>
	
		<image style="overflow:visible;opacity:0.75;" width="128" height="132" xlink:href="E30D2F8B.png"  transform="matrix(0.24 0 0 0.24 64.1645 24.0414)">
	</image>
	<g>
		<path d="M72.5,32.2h-0.2c-0.2,0.3-0.1,0.8,0,1.2c0,0.2,0.4,0.2,0.4,0C72.8,32.9,72.7,32.5,72.5,32.2z"/>
	</g>
</g>
<g>
	
		<image style="overflow:visible;opacity:0.75;" width="128" height="133" xlink:href="E30D3077.png"  transform="matrix(0.24 0 0 0.24 67.2845 29.3214)">
	</image>
	<g>
		<path d="M75.6,37.6c-0.1,0.4-0.1,0.9-0.1,1.4c0,0.2,0.3,0.2,0.3,0c0-0.4,0-0.9,0.1-1.3C75.9,37.5,75.6,37.5,75.6,37.6z"/>
	</g>
</g>
<g>
	
		<image style="overflow:visible;opacity:0.75;" width="129" height="131" xlink:href="E30D3069.png"  transform="matrix(0.24 0 0 0.24 68.7245 31.4814)">
	</image>
	<g>
		<path d="M77.4,39.6L77.1,40l-0.2,0.5c-0.1,0.3,0.4,0.4,0.4,0.1l0.1-0.4l0.1-0.4l-0.1-0.2L77.4,39.6z"/>
	</g>
</g>
<g>
	
		<image style="overflow:visible;opacity:0.75;" width="128" height="133" xlink:href="E30D306B.png"  transform="matrix(0.24 0 0 0.24 56.4845 24.0414)">
	</image>
	<g>
		<path d="M64.9,32.2l-0.2-0.1l-0.1,0.2c0,0.5,0,1,0.1,1.4c0,0.1,0.1,0.2,0.3,0.2h0l0.2-0.2C65.2,33.2,65.2,32.6,64.9,32.2z"/>
	</g>
</g>
<g>
	
		<image style="overflow:visible;opacity:0.75;" width="129" height="134" xlink:href="E30D306E.png"  transform="matrix(0.24 0 0 0.24 53.1245 18.5214)">
	</image>
	<g>
		<path d="M61.6,26.8c-0.3,0.5-0.4,1.1-0.2,1.7l0.2,0.1l0.1-0.1c0.2-0.5,0-1,0.2-1.5C61.9,26.7,61.7,26.6,61.6,26.8z"/>
	</g>
</g>
<g>
	
		<image style="overflow:visible;opacity:0.75;" width="130" height="131" xlink:href="E30D306F.png"  transform="matrix(0.24 0 0 0.24 51.2045 13.9614)">
	</image>
	<g>
		<path d="M59.9,22.1l-0.2,0.3l-0.1,0.2l-0.1,0.2c-0.1,0.1-0.1,0.3,0,0.4c0,0,0,0,0,0l0,0c0.1,0.1,0.3,0.1,0.4-0.1l0-0.1l0.2-0.4
			l0.1-0.5C60.2,22.1,60,22,59.9,22.1z"/>
	</g>
</g>
<g>
	
		<image style="overflow:visible;opacity:0.75;" width="128" height="132" xlink:href="E30D306A.png"  transform="matrix(0.24 0 0 0.24 56.9645 15.4014)">
	</image>
	<g>
		<path d="M65.5,24.5l0-0.2l0-0.2l-0.1-0.4l-0.2-0.1l-0.1,0.1L65,24.2l0,0.2l0,0.2c-0.1,0.1-0.1,0.3,0.1,0.4
			c0.1,0.1,0.3,0.1,0.4-0.1L65.5,24.5L65.5,24.5z"/>
	</g>
</g>
<g>
	
		<image style="overflow:visible;opacity:0.75;" width="127" height="131" xlink:href="E30D3095.png"  transform="matrix(0.24 0 0 0.24 56.7245 19.4814)">
	</image>
	<g>
		<path d="M65.1,27.6L65,27.5l-0.1,0.1c0,0.3,0,0.7,0,1l0.2,0.1l0.1-0.1C65.2,28.3,65.2,28,65.1,27.6z"/>
	</g>
</g>
<g>
	
		<image style="overflow:visible;opacity:0.75;" width="128" height="130" xlink:href="E30D3096.png"  transform="matrix(0.24 0 0 0.24 54.0845 23.3214)">
	</image>
	<g>
		<path d="M62.5,31.4l-0.2,0c-0.1,0.3-0.2,0.7-0.1,1l0.2,0.2l0.2-0.2C62.7,32,62.7,31.7,62.5,31.4z"/>
	</g>
</g>
<g>
	
		<image style="overflow:visible;opacity:0.75;" width="130" height="130" xlink:href="E30D3097.png"  transform="matrix(0.24 0 0 0.24 58.1645 27.8814)">
	</image>
	<g>
		<path d="M67.2,36.9c-0.1-0.3-0.3-0.6-0.5-0.8c-0.1-0.1-0.3,0-0.2,0.2c0.2,0.2,0.4,0.5,0.5,0.8C67,37.1,67.2,37,67.2,36.9z"/>
	</g>
</g>
<g>
	
		<image style="overflow:visible;opacity:0.75;" width="129" height="132" xlink:href="E30D3099.png"  transform="matrix(0.24 0 0 0.24 62.0045 26.6814)">
	</image>
	<g>
		<path d="M70.8,35.9c-0.2-0.3-0.3-0.6-0.4-0.9c0-0.2-0.3-0.2-0.3,0c0,0.4,0.1,0.8,0.4,1.1C70.6,36.2,70.9,36.1,70.8,35.9z"/>
	</g>
</g>
<g>
	
		<image style="overflow:visible;opacity:0.75;" width="129" height="131" xlink:href="E30D30B6.png"  transform="matrix(0.24 0 0 0.24 54.0845 27.6414)">
	</image>
	<g>
		<path d="M62.4,35.8l-0.2,0l0,0.2c0.2,0.3,0.1,0.8,0.5,1c0.1,0,0.3,0,0.3-0.1c0,0,0,0,0,0l0-0.1C63,36.3,62.6,36.1,62.4,35.8z"/>
	</g>
</g>
<g>
	
		<image style="overflow:visible;opacity:0.75;" width="128" height="132" xlink:href="E30D30B1.png"  transform="matrix(0.24 0 0 0.24 52.4045 21.6414)">
	</image>
	<g>
		<path d="M60.7,29.9c-0.1-0.2-0.3-0.1-0.3,0.1c0.2,0.4,0.3,0.8,0.4,1.2l0.2,0.1l0.1-0.1C61,30.7,60.9,30.3,60.7,29.9z"/>
	</g>
</g>
<g>
	
		<image style="overflow:visible;opacity:0.75;" width="130" height="132" xlink:href="E30D30B2.png"  transform="matrix(0.24 0 0 0.24 46.1645 10.6014)">
	</image>
	<g>
		<path d="M55.1,19L55,18.8c-0.1-0.1-0.2-0.1-0.2,0.1L54.6,19l-0.2,0.3c-0.1,0.2-0.1,0.4-0.1,0.6c0,0.1,0.2,0.2,0.3,0.2c0,0,0,0,0,0
			l0.2-0.2l0.2-0.3l0.1-0.4L55.1,19z"/>
	</g>
</g>
<g>
	
		<image style="overflow:visible;opacity:0.75;" width="128" height="132" xlink:href="E30D30B0.png"  transform="matrix(0.24 0 0 0.24 49.7645 11.5614)">
	</image>
	<g>
		<path d="M58.4,20.1l-0.1-0.3l-0.2-0.1L58,19.8l-0.2,0.5l-0.1,0.5c0,0.1,0.1,0.3,0.2,0.3l0.2-0.1c0.1-0.2,0.2-0.4,0.2-0.6
			L58.4,20.1z"/>
	</g>
</g>
<g>
	
		<image style="overflow:visible;opacity:0.75;" width="130" height="134" xlink:href="E30D30BE.png"  transform="matrix(0.24 0 0 0.24 50.0045 18.2814)">
	</image>
	<g>
		<path d="M58.8,27l-0.2-0.4l-0.2-0.2c-0.1-0.1-0.2-0.1-0.2,0l-0.1,0.3c0,0.2,0,0.3,0,0.5c0,0.3,0.1,0.6,0.3,0.9
			c0.1,0.1,0.3,0.2,0.5,0L59,28C59,27.6,59,27.3,58.8,27z"/>
	</g>
</g>
<g>
	
		<image style="overflow:visible;opacity:0.75;" width="129" height="130" xlink:href="E30D30B3.png"  transform="matrix(0.24 0 0 0.24 45.2045 20.6814)">
	</image>
	<g>
		<path d="M54,29.4c-0.2-0.2-0.3-0.4-0.4-0.7c-0.1-0.1-0.3-0.1-0.3,0.1c0.1,0.3,0.1,0.7,0.4,0.9l0.3-0.1V29.4z"/>
	</g>
</g>
<g>
	
		<image style="overflow:visible;opacity:0.75;" width="131" height="134" xlink:href="E30D30B7.png"  transform="matrix(0.24 0 0 0.24 57.2045 10.8414)">
	</image>
	<g>
		<path d="M66.6,19.3c0-0.2-0.3-0.4-0.5-0.2c-0.4,0.3-0.7,0.8-0.9,1.3c0,0.2,0.1,0.3,0.3,0.4l0.2-0.1C66.2,20.4,66.7,19.9,66.6,19.3
			z"/>
	</g>
</g>
<g>
	
		<image style="overflow:visible;opacity:0.75;" width="129" height="132" xlink:href="E30D30B5.png"  transform="matrix(0.24 0 0 0.24 53.6045 15.6414)">
	</image>
	<g>
		<path d="M62.1,23.9c-0.2,0.3-0.3,0.7-0.2,1c0.1,0.2,0.5,0.3,0.5,0c0-0.3,0-0.6,0.1-0.8l-0.1-0.2L62.1,23.9z"/>
	</g>
</g>
<g>
	
		<image style="overflow:visible;opacity:0.75;" width="130" height="131" xlink:href="E30D30AC.png"  transform="matrix(0.24 0 0 0.24 56.0045 27.1614)">
	</image>
	<g>
		<path d="M64.7,35.6c-0.1-0.1-0.3-0.1-0.4-0.2c-0.1-0.1-0.3-0.1-0.2,0.1c0.1,0.3,0.2,0.8,0.4,0.9c0.2,0.1,0.4,0.1,0.5-0.1l0.1-0.2
			C65,35.9,64.9,35.7,64.7,35.6z"/>
	</g>
</g>
<g>
	
		<image style="overflow:visible;opacity:0.75;" width="128" height="128" xlink:href="E30D30AD.png"  transform="matrix(0.24 0 0 0.24 59.8445 25.0014)">
	</image>
	<g>
		<circle cx="68.2" cy="33.3" r="0.3"/>
	</g>
</g>
<g>
	
		<image style="overflow:visible;opacity:0.75;" width="128" height="130" xlink:href="E30D30D5.png"  transform="matrix(0.24 0 0 0.24 57.9245 21.8814)">
	</image>
	<g>
		<path d="M66.6,30.1l-0.2-0.2l-0.2,0.2l0,0.6c0,0.2,0.3,0.2,0.3,0C66.5,30.5,66.6,30.3,66.6,30.1z"/>
	</g>
</g>
<g>
	
		<image style="overflow:visible;opacity:0.75;" width="131" height="140" xlink:href="E30D30D7.png"  transform="matrix(0.24 0 0 0.24 60.0845 11.5614)">
	</image>
	<g>
		<path d="M69.4,21c-0.1-0.5-0.3-1.2-0.9-1.3l-0.1,0.1c0.1,0.9,0,1.8,0.1,2.8c0,0.2,0.2,0.4,0.5,0.3c0,0,0,0,0,0l0.2-0.1
			C69.4,22.3,69.6,21.6,69.4,21z"/>
	</g>
</g>
<g>
	
		<image style="overflow:visible;opacity:0.75;" width="130" height="132" xlink:href="E30D30D4.png"  transform="matrix(0.24 0 0 0.24 64.4045 28.8414)">
	</image>
	<g>
		<path d="M73.4,37.6l-0.3-0.3l-0.2-0.2L72.7,37l-0.1,0.1l-0.1,0.4l0.1,0.4c0.1,0.3,0.4,0.7,0.7,0.6C73.7,38.4,73.6,37.8,73.4,37.6z
			"/>
	</g>
</g>
<g>
	
		<image style="overflow:visible;opacity:0.75;" width="129" height="129" xlink:href="E30D30D3.png"  transform="matrix(0.24 0 0 0.24 61.2845 29.5614)">
	</image>
	<g>
		<path d="M70,38.1c-0.1-0.1-0.3-0.2-0.4-0.3c-0.1-0.1-0.2,0-0.3,0.1c-0.1,0.2,0,0.3,0.1,0.5c0.1,0.2,0.3,0.2,0.5,0.1
			C70.1,38.4,70.1,38.2,70,38.1z"/>
	</g>
</g>
<g>
	
		<image style="overflow:visible;opacity:0.75;" width="129" height="130" xlink:href="E30D30CD.png"  transform="matrix(0.24 0 0 0.24 62.9645 21.4014)">
	</image>
	<g>
		<path d="M71.7,29.5h-0.3c-0.2,0.2-0.2,0.4-0.2,0.6c0,0.1,0,0.3,0.2,0.3c0,0,0,0,0,0l0.3-0.1C71.8,30.1,72,29.7,71.7,29.5z"/>
	</g>
</g>
<g>
	
		<image style="overflow:visible;opacity:0.75;" width="130" height="132" xlink:href="E30D30CF.png"  transform="matrix(0.24 0 0 0.24 68.2445 17.8014)">
	</image>
	<g>
		<path d="M77.2,26.9c0-0.1-0.1-0.3-0.1-0.4l-0.1-0.4c0-0.4-0.6-0.3-0.6,0c0,0.2,0,0.3,0,0.5c0,0.1,0,0.3,0,0.4
			c0,0.2,0.1,0.4,0.3,0.4c0.2,0,0.4-0.1,0.4-0.3c0,0,0,0,0,0L77.2,26.9L77.2,26.9z"/>
	</g>
</g>
<g>
	
		<image style="overflow:visible;opacity:0.75;" width="129" height="133" xlink:href="E30D30CC.png"  transform="matrix(0.24 0 0 0.24 54.8045 21.6414)">
	</image>
	<g>
		<path d="M63.1,29.7l-0.2,0l0,0.2c0.2,0.5,0.3,1,0.5,1.4l0.3,0.1l0.1-0.2C63.6,30.7,63.4,30.2,63.1,29.7z"/>
	</g>
</g>
<g>
	
		<image style="overflow:visible;opacity:0.75;" width="130" height="134" xlink:href="E30D30F3.png"  transform="matrix(0.24 0 0 0.24 44.9645 11.0814)">
	</image>
	<g>
		<path d="M53.9,19.3c0-0.2-0.3-0.3-0.4-0.1c-0.3,0.5-0.5,1.1-0.4,1.8c0,0.2,0.2,0.3,0.4,0.3c0,0,0,0,0,0l0.2-0.1
			C54.1,20.6,53.9,19.9,53.9,19.3z"/>
	</g>
</g>
<g>
	
		<image style="overflow:visible;opacity:0.75;" width="130" height="136" xlink:href="E30D30F5.png"  transform="matrix(0.24 0 0 0.24 48.0845 10.8414)">
	</image>
	<g>
		<path d="M57.1,19l-0.2-0.1c-0.8,0.3-0.6,1.4-0.5,2.1c0,0.2,0.2,0.3,0.3,0.2c0.1,0,0.2-0.1,0.2-0.2c0-0.3,0.1-0.7,0.1-1
			C57.1,19.7,57.1,19.4,57.1,19z"/>
	</g>
</g>
<g>
	
		<image style="overflow:visible;opacity:0.75;" width="129" height="132" xlink:href="E30D30F7.png"  transform="matrix(0.24 0 0 0.24 52.4045 11.5614)">
	</image>
	<g>
		<path d="M61.1,20.4c0-0.2-0.1-0.4-0.2-0.6h-0.2c-0.1,0.2-0.2,0.4-0.2,0.7c0,0.3,0,0.5,0.2,0.7l0.3,0l0.1-0.2
			C61.2,20.8,61.2,20.6,61.1,20.4z"/>
	</g>
</g>
<g>
	
		<image style="overflow:visible;opacity:0.75;" width="130" height="137" xlink:href="E30D30E8.png"  transform="matrix(0.24 0 0 0.24 61.7645 11.8014)">
	</image>
	<g>
		<path d="M70.5,20.1c-0.1-0.2-0.3-0.1-0.4,0.1c-0.2,0.7-0.1,1.5,0.1,2.2c0.1,0.2,0.3,0.3,0.5,0.2l0.2-0.2
			C71.1,21.6,70.7,20.8,70.5,20.1z"/>
	</g>
</g>
<g>
	
		<image style="overflow:visible;opacity:0.75;" width="130" height="137" xlink:href="E30D30E7.png"  transform="matrix(0.24 0 0 0.24 65.1245 13.2414)">
	</image>
	<g>
		<path d="M73.9,21.6c-0.2-0.3-0.8-0.2-0.7,0.2c0.2,0.6,0.3,1.2,0.4,1.9c0,0.2,0.2,0.3,0.4,0.2c0.1,0,0.2-0.1,0.3-0.3
			C74.3,23,74.2,22.3,73.9,21.6z"/>
	</g>
</g>
<g>
	
		<image style="overflow:visible;opacity:0.75;" width="129" height="139" xlink:href="E30D3018.png"  transform="matrix(0.24 0 0 0.24 69.4445 22.8414)">
	</image>
	<g>
		<path d="M78.2,31.1c0-0.1-0.1-0.2-0.3-0.2c0,0,0,0,0,0l-0.2,0.2c-0.2,0.9-0.3,1.9-0.3,2.9l0.1,0.1l0.1-0.1
			C77.7,33,78.4,32.2,78.2,31.1z"/>
	</g>
</g>
<g>
	
		<image style="overflow:visible;opacity:0.75;" width="130" height="133" xlink:href="E30D301B.png"  transform="matrix(0.24 0 0 0.24 65.3645 26.4414)">
	</image>
	<g>
		<path d="M74.4,35.3c0-0.3-0.2-0.6-0.5-0.8c-0.2-0.1-0.4,0.2-0.4,0.4l0.2,0.7c0,0.2,0.1,0.5,0.3,0.7l0.3,0l0.1-0.1
			C74.4,35.9,74.4,35.6,74.4,35.3z"/>
	</g>
</g>
<g>
	
		<image style="overflow:visible;opacity:0.75;" width="236" height="250" xlink:href="E30D3019.png"  transform="matrix(0.24 0 0 0.24 49.0445 56.2014)">
	</image>
	<g>
		<path d="M83.4,87.2c-0.9-0.7-1.8-1.4-2.8-2.1c-1.1-0.4-2.1-0.9-3-1.6c-1.3-1.2-2.4-2.6-3.3-4.2c-0.5-2.1-0.8-4.2-1.4-6.3
			c-0.5-1.8-0.8-3.6-0.8-5.4c0.1-1.1-0.1-2.3-0.7-3.3c-0.1-0.1-0.2-0.1-0.3,0.1c0,1.6-0.4,3.1-0.4,4.7c0.1,1.9,0.5,3.7,1,5.4
			c0.4,1.9,1,3.7,1.7,5.5l0.2,0.5l-0.1,0.2c1.3,2.9-4.3,5.5-6.3,6.7c-2.2,1.3-4.4,2.4-6.8,3.4c-1.4,0.6-2.9,1.3-3.4,2.9l0.1,0.2
			l0.1,0c2.2-1.1,4.5-2,6.8-2.7c2.1-0.9,4.1-2,5.9-3.4c1.4-1.1,4.2-3.5,4.3-5.8c0.5,1,1.1,1.9,1.9,2.7c0.6,0.6,1.4,1,2.2,1.2
			c1.6,0.4,3.1,0.9,4.7,1.4C83.4,87.6,83.6,87.3,83.4,87.2z"/>
	</g>
</g>
<g>
	
		<image style="overflow:visible;opacity:0.75;" width="179" height="163" xlink:href="E30D301F.png"  transform="matrix(0.24 0 0 0.24 35.1245 77.8014)">
	</image>
	<g>
		<path d="M54.8,92.7c-1.1-0.8-2.4-1.4-3.5-2.2c-2.5-1.7-5.3-2.9-7.8-4.5l-0.3,0l0,0.3l0,0c3.5,3.6,7.5,6.4,12.1,8.5
			c0.2,0.1,0.5,0,0.6-0.3l0-0.2C55.8,93.7,55.4,93,54.8,92.7z"/>
	</g>
</g>
<g>
	
		<image style="overflow:visible;opacity:0.75;" width="140" height="160" xlink:href="E30D301A.png"  transform="matrix(0.24 0 0 0.24 47.6045 52.3614)">
	</image>
	<g>
		<path d="M58.2,64.8c-0.5-0.8-1.7-3.1-1.3-4l-0.1-0.2l-0.2,0c-2.3,1.7,0.9,6,1.5,7.7c0.1,0.2,0.4,0.3,0.6,0.2l0.2-0.2
			C59.2,67,59,65.8,58.2,64.8z"/>
	</g>
</g>
<g>
	
		<image style="overflow:visible;opacity:0.75;" width="135" height="161" xlink:href="E30D3025.png"  transform="matrix(0.24 0 0 0.24 45.4445 56.6814)">
	</image>
	<g>
		<path d="M54.5,64.9c0-0.2-0.3-0.2-0.3,0c-0.1,1.3,0.2,2.5,0.1,3.7c-0.1,1.3-0.4,2.7-0.6,4c-0.1,0.6,0.9,0.9,1.1,0.3
			c0.5-1.3,0.9-2.7,1-4.1C55.7,67.3,54.8,66.3,54.5,64.9z"/>
	</g>
</g>
<g>
	
		<image style="overflow:visible;opacity:0.75;" width="132" height="151" xlink:href="E30D3026.png"  transform="matrix(0.24 0 0 0.24 19.7645 64.1214)">
	</image>
	<g>
		<path d="M29.1,72.3l-0.2-0.1l-0.1,0.1c-0.9,1.8-1.1,3.8-0.8,5.8c0.1,0.2,0.3,0.3,0.6,0.2l0.2-0.2c0.2-1.1,0.3-2.2,0.3-3.3
			C29.3,74,29.3,73.1,29.1,72.3z"/>
	</g>
</g>
<g>
	
		<image style="overflow:visible;opacity:0.75;" width="130" height="146" xlink:href="E30D3027.png"  transform="matrix(0.24 0 0 0.24 22.1645 66.2814)">
	</image>
	<g>
		<path d="M31.3,74.6c0-0.1-0.2-0.2-0.3,0c-0.3,0.7-0.5,1.4-0.7,2.1c-0.1,0.7-0.1,1.5,0.1,2.2c0.1,0.2,0.3,0.2,0.4,0.2c0,0,0,0,0,0
			l0.2-0.2c0.2-0.7,0.2-1.5,0.2-2.2C31.3,76,31.4,75.3,31.3,74.6z"/>
	</g>
</g>
<g>
	
		<image style="overflow:visible;opacity:0.75;" width="135" height="153" xlink:href="E30D3003.png"  transform="matrix(0.24 0 0 0.24 23.1245 67.4814)">
	</image>
	<g>
		<path d="M33.3,75.6l-0.2-0.1L33,75.5c-0.5,0.9-0.9,1.9-1.2,2.9c-0.4,1-0.6,2.1-0.7,3.2c0,0.2,0.2,0.5,0.4,0.5c0.1,0,0.3,0,0.4-0.2
			C33.1,80.1,33.6,77.8,33.3,75.6z"/>
	</g>
</g>
<g>
	
		<image style="overflow:visible;opacity:0.75;" width="136" height="157" xlink:href="E30D3005.png"  transform="matrix(0.24 0 0 0.24 25.2845 66.5214)">
	</image>
	<g>
		<path d="M35.4,74.7c-0.8,0.6-0.7,1.8-0.9,2.7c-0.2,1.4-1.2,2.8-1,4.2c0,0.2,0.3,0.4,0.5,0.4c0,0,0,0,0,0l0.3-0.2
			c1.2-2.1,1.7-4.6,1.4-7l-0.2-0.2L35.4,74.7z"/>
	</g>
</g>
<g>
	
		<image style="overflow:visible;opacity:0.75;" width="137" height="149" xlink:href="E30D3007.png"  transform="matrix(0.24 0 0 0.24 27.2045 68.4414)">
	</image>
	<g>
		<path d="M37.5,76.6c-0.1-0.1-0.3,0-0.3,0.1c0.1,1.9-1.5,3-1.9,4.8c0,0.2,0.1,0.5,0.4,0.5l0.2,0C37.7,80.8,38.4,78.5,37.5,76.6z"/>
	</g>
</g>
<g>
	
		<image style="overflow:visible;opacity:0.75;" width="135" height="149" xlink:href="E30D3002.png"  transform="matrix(0.24 0 0 0.24 29.8445 67.7214)">
	</image>
	<g>
		<path d="M39.8,76c-0.3,0.8-0.6,1.7-0.7,2.6c-0.4,0.8-0.8,1.5-1.1,2.4c-0.1,0.3,0.3,0.5,0.6,0.3c0.7-0.5,1.3-1.3,1.5-2.1
			c0.3-1-0.1-2,0.1-3C40.3,76,39.9,75.8,39.8,76z"/>
	</g>
</g>
<g>
	
		<image style="overflow:visible;opacity:0.75;" width="135" height="141" xlink:href="E30D3001.png"  transform="matrix(0.24 0 0 0.24 29.8445 63.4014)">
	</image>
	<g>
		<path d="M39.7,71.7c-0.4,1.1-1,2.1-1.6,3.1c-0.1,0.2,0.2,0.4,0.4,0.3c1.1-0.8,1.7-2,1.6-3.3l-0.2-0.1L39.7,71.7z"/>
	</g>
</g>
<g>
	
		<image style="overflow:visible;opacity:0.75;" width="137" height="170" xlink:href="E30D300D.png"  transform="matrix(0.24 0 0 0.24 32.2445 62.2014)">
	</image>
	<g>
		<path d="M42.3,70.5l-0.2-0.2L42,70.4c-0.5,1.6-0.7,3.3-0.6,5c-0.2,1.7-0.5,3.4-0.9,5c0,0.3,0.2,0.5,0.4,0.5l0.2,0
			C44.8,79.1,42.1,73.4,42.3,70.5z"/>
	</g>
</g>
<g>
	
		<image style="overflow:visible;opacity:0.75;" width="133" height="149" xlink:href="E30D300F.png"  transform="matrix(0.24 0 0 0.24 35.8445 66.2814)">
	</image>
	<g>
		<path d="M45.3,74.6l-0.2-0.1L45,74.6c-0.2,0.7-0.4,1.5-0.5,2.3c-0.2,0.8-0.5,1.6-0.6,2.5c0,0.3,0.4,0.6,0.7,0.4
			C45.7,78.3,46,76.3,45.3,74.6z"/>
	</g>
</g>
<g>
	
		<image style="overflow:visible;opacity:0.75;" width="132" height="144" xlink:href="E30D3000.png"  transform="matrix(0.24 0 0 0.24 38.0045 67.7214)">
	</image>
	<g>
		<path d="M47.3,75.8c-0.6,1.2-1,2.6-1.2,3.9c0,0.3,0.4,0.5,0.6,0.2c0.6-1.3,0.9-2.7,0.9-4.1l-0.1-0.1L47.3,75.8z"/>
	</g>
</g>
<g>
	
		<image style="overflow:visible;opacity:0.75;" width="132" height="165" xlink:href="E30D3006.png"  transform="matrix(0.24 0 0 0.24 40.1645 62.9214)">
	</image>
	<g>
		<path d="M49.2,71.1L49,71l-0.1,0.1c-0.4,3-0.6,5.9-0.6,8.9c0,0.2,0.2,0.3,0.4,0.3c0,0,0,0,0,0l0.2-0.1
			C50,77.3,50.1,74.1,49.2,71.1z"/>
	</g>
</g>
<g>
	
		<image style="overflow:visible;opacity:0.75;" width="134" height="156" xlink:href="E30D301C.png"  transform="matrix(0.24 0 0 0.24 42.8045 64.3614)">
	</image>
	<g>
		<path d="M51.4,72.6l-0.3,0l0,0.1c0.3,1.1,0.4,2.2,0.4,3.3c-0.1,1.1-0.5,2-0.6,3.1c0,0.3,0.2,0.5,0.5,0.6c0.1,0,0.2,0,0.4-0.1
			C53.5,77.5,53.3,74.5,51.4,72.6z"/>
	</g>
</g>
<g>
	
		<image style="overflow:visible;opacity:0.75;" width="133" height="152" xlink:href="E30D3062.png"  transform="matrix(0.24 0 0 0.24 35.1245 60.5214)">
	</image>
	<g>
		<path d="M44.7,68.9c0-0.2-0.2-0.2-0.3-0.1c-0.3,0.9-0.2,1.9-0.4,2.9c-0.4,0.9-0.6,1.9-0.6,2.9c0,0.4,0.5,0.4,0.7,0.1
			c0.4-0.9,0.7-1.9,0.8-2.9C44.9,70.8,44.5,69.8,44.7,68.9z"/>
	</g>
</g>
<g>
	
		<image style="overflow:visible;opacity:0.75;" width="135" height="155" xlink:href="E30D3065.png"  transform="matrix(0.24 0 0 0.24 37.5245 58.6014)">
	</image>
	<g>
		<path d="M46.1,66.9c0-0.2-0.4-0.2-0.4,0c0.1,1,0.3,2,0.6,3c0.2,1.1,0.2,2.2,0.4,3.3c0.1,0.3,0.5,0.5,0.7,0.2
			C48.7,71.3,46.5,69,46.1,66.9z"/>
	</g>
</g>
<g>
	
		<image style="overflow:visible;opacity:0.75;" width="134" height="140" xlink:href="E30D3066.png"  transform="matrix(0.24 0 0 0.24 39.4445 58.1214)">
	</image>
	<g>
		<path d="M47.8,66.1l-0.2,0.2l0.1,0.2c0.9,0.4,0.5,2,0.8,2.8c0.1,0.2,0.3,0.2,0.4,0.2l0.2-0.2C49.7,68.3,49.2,66.2,47.8,66.1z"/>
	</g>
</g>
<g>
	
		<image style="overflow:visible;opacity:0.75;" width="132" height="159" xlink:href="E30D3064.png"  transform="matrix(0.24 0 0 0.24 41.6045 56.2014)">
	</image>
	<g>
		<path d="M50.2,64.5c-0.1-0.2-0.3-0.1-0.4,0.1c-0.1,1.1-0.1,2.3,0.2,3.4c-0.1,1.3,0,2.5,0.1,3.8c0.1,0.4,0.7,0.6,0.9,0.1
			C51.5,69.4,51.2,66.8,50.2,64.5z"/>
	</g>
</g>
<g>
	
		<image style="overflow:visible;opacity:0.75;" width="135" height="160" xlink:href="E30D3063.png"  transform="matrix(0.24 0 0 0.24 43.2845 54.7614)">
	</image>
	<g>
		<path d="M51.8,62.9c-0.1-0.2-0.4,0-0.3,0.2c0.6,2.4,0.8,5,0.5,7.5c0,0.4,0.5,0.7,0.8,0.3C54,68.2,53.6,65.1,51.8,62.9z"/>
	</g>
</g>
<g>
	
		<image style="overflow:visible;opacity:0.75;" width="140" height="155" xlink:href="E30D307D.png"  transform="matrix(0.24 0 0 0.24 51.6845 37.0014)">
	</image>
	<g>
		<path d="M62.9,45.3c-0.6,1-1.5,1.6-2,2.7c-0.5,1.2-0.8,2.4-1,3.7c0,0.2,0.1,0.4,0.4,0.4c0.1,0,0.3,0,0.4-0.2
			c0.7-1.2,1.1-2.4,1.4-3.8c0.5-0.9,0.9-1.8,1.2-2.8C63.3,45.2,63,45.1,62.9,45.3z"/>
	</g>
</g>
<g>
	
		<image style="overflow:visible;opacity:0.75;" width="133" height="142" xlink:href="E30D307E.png"  transform="matrix(0.24 0 0 0.24 51.6845 35.0814)">
	</image>
	<g>
		<path d="M61.6,43.4l-0.1-0.3l-0.3,0.1c-0.2,0.5-0.4,1-0.5,1.5c-0.1,0.5-0.3,1.1-0.6,1.5c-0.4,0.5,0.3,1.1,0.8,0.8
			c0.5-0.4,0.8-0.9,0.8-1.6C61.5,44.7,61.5,44,61.6,43.4z"/>
	</g>
</g>
<g>
	
		<image style="overflow:visible;opacity:0.75;" width="367" height="184" xlink:href="E30D307C.png"  transform="matrix(0.24 0 0 0.24 6.3245 29.0814)">
	</image>
	<g>
		<path class="st0" d="M72.1,40.2c-2-0.5-4-0.8-6.1-0.8c-0.1-0.2-0.4-0.3-0.6-0.3c-2.4-0.1-4.8-0.7-7.2-1c-2.1-0.2-4.2-0.3-6.3-0.3
			c-0.2-0.2-0.4-0.3-0.6-0.3c-7.6-0.8-15.4-0.4-22.9,1.3c-3.5,0-7.1-0.4-10.5-1.1c-1-0.2-2.1,0-3,0.5c-1,0.8,0,2-0.7,3
			c-0.1,0.2,0.1,0.4,0.3,0.3c0.6-0.5,0.7-1.2,1.1-1.6c-0.2,0.7-0.2,1.4,0,2c0.3,1.9,0.8,3.7,1.7,5.4c1.5,2.3,5.2,4.7,6.8,1.2
			l0.1-0.3c0.5-0.5,0.9-1,1.3-1.5c1.1-1.5,2-3.2,2.6-5c0.4-0.1,0.9-0.1,1.4,0l0.3,0.1c0.3,0.5,0.6,0.9,1,1.3c0.2,0.3,0.4,0.6,0.6,1
			c0.3,2.4,1.5,4.5,3.4,6c2.1,1,4.4,1.3,6.6,0.7c1.9-0.5,3.3-2.2,3.5-4.2c0.1-1.3,0.1-2.5,0-3.8c-0.1-1.1-0.3-2.2-0.8-3.3
			c-0.1-0.2-0.2-0.4-0.4-0.5c0.5,0,1,0,1.4,0l0.1,0.3l0,0c0,0.4,0.1,0.8,0.2,1.2c0.1,0.5,0.5,0.8,1,0.7c0.2,0,0.4-0.2,0.6-0.3
			c0.3-0.5,1-0.6,1.6-0.6c0.2,0.2,0.5,0.4,0.8,0.3c2.8,0,5.7,0.2,8.5,0.6c0.1,0.1,0.3,0.2,0.4,0.2c0.7,0,1.5,0,2.2,0l0.6,0
			c0.1,0,0.3,0,0.4-0.1l0.5,0c0.9,0.1,1.7,0.1,2.6-0.1h0v0l0.2-0.1l0.1,0l1.1,0c2,0.1,4,0,6-0.5c0.2-0.1,0.2-0.3,0.2-0.4
			c0,0,0,0,0,0L72.1,40.2z"/>
	</g>
</g>
<path d="M72.8,64.2l-0.5-0.4c0.2-0.2,0.4-0.5,0.5-0.8c0.1-0.3,0-0.4-0.1-0.5c-0.4-0.1-0.5,1.5-1.4,1.2c-0.5-0.1-0.8-0.6-0.6-1.4
	c0.1-0.3,0.2-0.7,0.5-0.9l0.5,0.4c-0.2,0.2-0.3,0.5-0.4,0.7c-0.1,0.3,0,0.5,0.1,0.5c0.4,0.1,0.5-1.5,1.4-1.2
	c0.5,0.1,0.8,0.6,0.6,1.4C73.2,63.6,73,64,72.8,64.2z"/>
<path d="M74.7,58.1l-0.3,1.1l0.5,0.3l-0.2,0.8l-2.4-1.8l0.2-0.7l2.9-0.6L75.3,58L74.7,58.1z M74.1,58.2l-0.9,0.1l0.8,0.5L74.1,58.2z
	"/>
<path d="M75,52l2.6,0.9l-0.2,0.6l-1.8,0.7l1.4,0.5l-0.2,0.7l-2.6-0.9l0.2-0.6l1.8-0.7l-1.4-0.5L75,52z"/>
<path d="M80.7,31.7l2.6,0.6L83.2,33l-1.7,0.8l1.4,0.3l-0.2,0.7l-2.6-0.6l0.1-0.6l1.7-0.8l-1.4-0.3L80.7,31.7z"/>
<path d="M76.4,49.4l0.2-1.3c0.2-0.9,0.8-1.4,1.6-1.2c0.8,0.2,1.2,0.9,1,1.7L79,49.9L76.4,49.4z M78.7,48.5c0.1-0.5-0.1-0.8-0.6-0.9
	c-0.5-0.1-0.8,0.2-0.9,0.6l-0.1,0.5l1.5,0.3L78.7,48.5z"/>
<path d="M77.9,41.6l2.7,0.5l-0.1,0.8l-1-0.2l-0.2,1l1,0.2L80,44.6l-2.7-0.5l0.1-0.8l1,0.2l0.2-1l-1-0.2L77.9,41.6z"/>
<path d="M81.5,37.9L81.1,39l0.4,0.4l-0.3,0.7l-2.2-2l0.2-0.7l3-0.3L82,37.9L81.5,37.9z M80.9,38L79.9,38l0.7,0.6L80.9,38z"/>
<path d="M80.9,29.6l0.1-0.8l2.7,0.4l-0.1,0.8L80.9,29.6z"/>
<path d="M83.6,86.6l-0.5-0.5c-0.4-0.4-0.4-0.8-0.1-1.2c0.3-0.4,0.8-0.3,1.2,0l0.5,0.5L83.6,86.6z M83.9,85.2c-0.2-0.2-0.4-0.2-0.6,0
	c-0.2,0.2-0.2,0.4,0,0.6l0.2,0.2l0.6-0.6L83.9,85.2z"/>
<path d="M81.4,83.3l0.2-0.3l1,0.8l-1,1.2l-0.9-0.8l0.2-0.3l0.6,0.5l0.2-0.2l-0.5-0.5l0.2-0.3l0.5,0.5l0.2-0.2L81.4,83.3z"/>
<path d="M78.2,82.6l1.6-0.7l0.3,0.3l-0.6,1.6l-0.4-0.3l0.4-1l-1,0.4L78.2,82.6z"/>
<path d="M77.7,80.3l0.3-0.1l0.5,1.2L77.1,82l-0.5-1.1l0.3-0.1l0.3,0.7l0.2-0.1l-0.3-0.6l0.3-0.1l0.3,0.6l0.3-0.1L77.7,80.3z"/>
<path d="M75.7,79.6l-0.1-0.4l1.2-0.4L76.4,78l0.3-0.1l0.4,1.1L75.7,79.6z"/>
<path d="M75.5,77.5c-0.5,0.2-0.9-0.1-1.1-0.6s0-0.9,0.5-1.1c0.5-0.2,0.9,0.1,1.1,0.6C76.1,76.9,75.9,77.4,75.5,77.5z M75,76.3
	c-0.3,0.1-0.4,0.3-0.3,0.6c0.1,0.2,0.3,0.3,0.6,0.3c0.3-0.1,0.4-0.3,0.3-0.6C75.5,76.3,75.3,76.2,75,76.3z"/>
<path d="M74.3,73.2c0.4-0.1,0.6,0.2,0.7,0.6l0,0.3l0.4-0.1l0.1,0.4L74,74.7l-0.1-0.7C73.8,73.5,74,73.2,74.3,73.2z M74.4,73.6
	c-0.1,0-0.2,0.1-0.2,0.3l0,0.2l0.5-0.1l0-0.2C74.6,73.7,74.5,73.6,74.4,73.6z"/>
<path d="M74.5,70.4l0.3,0l0.1,1.3l-1.6,0.1l-0.1-1.2l0.3,0l0.1,0.8l0.3,0l-0.1-0.7l0.3,0l0.1,0.7l0.3,0L74.5,70.4z"/>
<path d="M73.9,67.7l0,0.2l0.4,0l0,0.4l-1.6,0.2l-0.1-0.7c0-0.4,0.1-0.7,0.5-0.8c0.2,0,0.4,0.1,0.5,0.3l0.5-0.4l0.1,0.5L73.9,67.7z
	 M73.1,67.8l0,0.2l0.5-0.1l0-0.2c0-0.2-0.1-0.3-0.3-0.3C73.2,67.5,73.1,67.6,73.1,67.8z"/>
<path d="M43.7,89.2l-0.6,0.5l1,1.2l-0.6,0.5l-1-1.2l-0.9,0.8L41,90.2l2.7-2.2l1.8,2.1l-0.6,0.5L43.7,89.2z"/>
<path d="M45.5,91.9l1.5-1.3l0.6,0.7l-1.4,1.2c-0.4,0.4-0.5,0.7-0.2,1c0.3,0.3,0.6,0.3,1.1-0.1l1.4-1.2l0.6,0.7l-1.5,1.3
	c-0.8,0.7-1.6,0.6-2.3-0.2C44.6,93.5,44.7,92.6,45.5,91.9z"/>
<path d="M50.7,93.4l0.7,0.7l-1.8,2l1.2,1.1l-0.5,0.6L48.3,96L50.7,93.4z"/>
<path d="M53.1,95.4l0.9,0.5l-1.3,2.4l1.5,0.8l-0.4,0.7l-2.3-1.3L53.1,95.4z"/>
<path d="M55.6,98.9l0.3-0.7c0.3,0.2,0.7,0.3,1.1,0.3c0.4,0,0.6-0.1,0.6-0.3c0-0.6-2-0.1-2-1.4c0-0.6,0.5-1.1,1.5-1.1
	c0.5,0,0.9,0.1,1.3,0.3l-0.3,0.7c-0.3-0.2-0.7-0.3-1-0.3c-0.4,0-0.6,0.1-0.6,0.3c0,0.5,2,0.1,2,1.4c0,0.6-0.5,1.1-1.5,1.1
	C56.5,99.3,55.9,99.2,55.6,98.9z"/>
<path d="M60.8,95.8l-1,0.3l-0.2-0.8l3-0.8l0.2,0.8l-1,0.3l0.7,2.6l-1,0.3L60.8,95.8z"/>
<path d="M66.9,95l-1.3,0.7l0.1,0.7L64.8,97l-0.4-3.8l0.8-0.5l3.1,2.2l-0.9,0.5L66.9,95z M66.3,94.6l-0.9-0.7l0.2,1.2L66.3,94.6z"/>
<path d="M68,93.4c-0.5-1-0.1-2,0.9-2.5c0.6-0.3,1.1-0.3,1.6-0.1l-0.3,0.8c-0.3-0.1-0.6-0.2-0.9,0c-0.5,0.2-0.7,0.8-0.4,1.3
	c0.3,0.5,0.8,0.7,1.3,0.5c0.3-0.1,0.5-0.4,0.6-0.7l0.8,0.2c-0.1,0.5-0.5,1-1.1,1.2C69.5,94.6,68.4,94.3,68,93.4z"/>
<path d="M73.3,90.9l-0.1,0.5l0.4,0.8l-0.8,0.5l-1.7-3l0.8-0.5l0.7,1.3l0.4-1.9l0.9-0.5l-0.5,2l2.3,0.9l-1,0.6L73.3,90.9z"/>
</svg>
